G04 #@! TF.FileFunction,Copper,L1,Top,Signal*
%FSLAX46Y46*%
G04 Gerber Fmt 4.6, Leading zero omitted, Abs format (unit mm)*
G04 Created by KiCad (PCBNEW 4.0.5) date *
%MOMM*%
%LPD*%
G01*
G04 APERTURE LIST*
%ADD10C,0.100000*%
%ADD11C,5.000000*%
%ADD12R,1.300000X0.700000*%
%ADD13R,0.600000X1.500000*%
%ADD14R,1.900000X0.800000*%
%ADD15C,1.750060*%
%ADD16C,5.080000*%
%ADD17C,1.300000*%
%ADD18C,1.305560*%
%ADD19R,1.305560X1.305560*%
%ADD20C,0.600000*%
%ADD21C,0.370000*%
%ADD22C,0.250000*%
G04 APERTURE END LIST*
D10*
D11*
X63500000Y-29210000D03*
X29210000Y-69850000D03*
D12*
X45720000Y-51120000D03*
X45720000Y-53020000D03*
X45720000Y-47940000D03*
X45720000Y-46040000D03*
D13*
X38100000Y-62390000D03*
X39370000Y-62390000D03*
X40640000Y-62390000D03*
X41910000Y-62390000D03*
X43180000Y-62390000D03*
X44450000Y-62390000D03*
X45720000Y-62390000D03*
X45720000Y-56990000D03*
X44450000Y-56990000D03*
X43180000Y-56990000D03*
X41910000Y-56990000D03*
X40640000Y-56990000D03*
X39370000Y-56990000D03*
X38100000Y-56990000D03*
X38100000Y-42070000D03*
X39370000Y-42070000D03*
X40640000Y-42070000D03*
X41910000Y-42070000D03*
X43180000Y-42070000D03*
X44450000Y-42070000D03*
X45720000Y-42070000D03*
X45720000Y-36670000D03*
X44450000Y-36670000D03*
X43180000Y-36670000D03*
X41910000Y-36670000D03*
X40640000Y-36670000D03*
X39370000Y-36670000D03*
X38100000Y-36670000D03*
D14*
X39140000Y-51120000D03*
X39140000Y-53020000D03*
X42140000Y-52070000D03*
X39140000Y-46040000D03*
X39140000Y-47940000D03*
X42140000Y-46990000D03*
D15*
X54569360Y-43139360D03*
X49570640Y-40640000D03*
X54569360Y-38140640D03*
X54569360Y-60919360D03*
X49570640Y-58420000D03*
X54569360Y-55920640D03*
X54569360Y-52029360D03*
X49570640Y-49530000D03*
X54569360Y-47030640D03*
D16*
X62230000Y-36830000D03*
D17*
X59715400Y-49517300D03*
X59715400Y-47231300D03*
X59715400Y-44940220D03*
X59715400Y-51810920D03*
X59715400Y-54099460D03*
X62230000Y-50665380D03*
X62230000Y-48376840D03*
X62230000Y-46085760D03*
X62230000Y-43794680D03*
D16*
X62230000Y-61722000D03*
D17*
X62230000Y-52956460D03*
X64747140Y-44940220D03*
X64747140Y-47231300D03*
X64744600Y-49519840D03*
X64747140Y-51810920D03*
X64747140Y-54099460D03*
D16*
X30480000Y-62230000D03*
D17*
X32994600Y-49542700D03*
X32994600Y-51828700D03*
X32994600Y-54119780D03*
X32994600Y-47249080D03*
X32994600Y-44960540D03*
X30480000Y-48394620D03*
X30480000Y-50683160D03*
X30480000Y-52974240D03*
X30480000Y-55265320D03*
D16*
X30480000Y-37338000D03*
D17*
X30480000Y-46103540D03*
X27962860Y-54119780D03*
X27962860Y-51828700D03*
X27965400Y-49540160D03*
X27962860Y-47249080D03*
X27962860Y-44960540D03*
D18*
X40180260Y-67310000D03*
X43180000Y-67310000D03*
X46179740Y-67310000D03*
D19*
X36931600Y-67310000D03*
X49428400Y-67310000D03*
D18*
X38559740Y-31750000D03*
X35560000Y-31750000D03*
X32560260Y-31750000D03*
D19*
X41808400Y-31750000D03*
X29311600Y-31750000D03*
D18*
X53799740Y-31750000D03*
X50800000Y-31750000D03*
X47800260Y-31750000D03*
D19*
X57048400Y-31750000D03*
X44551600Y-31750000D03*
D18*
X55420260Y-67310000D03*
X58420000Y-67310000D03*
X61419740Y-67310000D03*
D19*
X52171600Y-67310000D03*
X64668400Y-67310000D03*
D20*
X38227000Y-38100000D03*
X43180000Y-38227000D03*
X36247637Y-43021435D03*
X37328038Y-45182236D03*
X53355447Y-53832545D03*
X52132108Y-55010693D03*
X43599995Y-59182000D03*
X45720000Y-43942000D03*
X39123901Y-44036099D03*
X45153293Y-55235010D03*
X41275000Y-58674000D03*
X51435000Y-47625000D03*
X46990000Y-61087000D03*
X39370000Y-40350000D03*
D21*
X42140000Y-46990000D02*
X46707592Y-46990000D01*
X46707592Y-46990000D02*
X47244000Y-46453592D01*
X47244000Y-46453592D02*
X47244000Y-40640000D01*
X47244000Y-40640000D02*
X45130999Y-38526999D01*
X45130999Y-38526999D02*
X43479999Y-38526999D01*
X43479999Y-38526999D02*
X43180000Y-38227000D01*
X42140000Y-46990000D02*
X42140000Y-52070000D01*
X42140000Y-46990000D02*
X42140000Y-44678373D01*
X42140000Y-44678373D02*
X41910000Y-44448373D01*
X41910000Y-44448373D02*
X41910000Y-42070000D01*
X42140000Y-52070000D02*
X42140000Y-54432787D01*
X42140000Y-54432787D02*
X40640000Y-55932787D01*
X40640000Y-55932787D02*
X40640000Y-56990000D01*
X40640000Y-56990000D02*
X40640000Y-57440000D01*
X40640000Y-57440000D02*
X39756281Y-58323719D01*
X39756281Y-58323719D02*
X38983719Y-58323719D01*
X38983719Y-58323719D02*
X38100000Y-57440000D01*
X38100000Y-57440000D02*
X38100000Y-56990000D01*
X45720000Y-51120000D02*
X45420000Y-51120000D01*
X38227000Y-38100000D02*
X38227000Y-36797000D01*
X38227000Y-36797000D02*
X38100000Y-36670000D01*
X43180000Y-36670000D02*
X43180000Y-38227000D01*
X44820000Y-51120000D02*
X45720000Y-51120000D01*
X44290000Y-51120000D02*
X44820000Y-51120000D01*
X43340000Y-52070000D02*
X44290000Y-51120000D01*
X42140000Y-52070000D02*
X43340000Y-52070000D01*
D22*
X30480000Y-48394620D02*
X30480000Y-48937233D01*
X30480000Y-48937233D02*
X32302198Y-50759431D01*
X38590000Y-53020000D02*
X39140000Y-53020000D01*
X32302198Y-50759431D02*
X36329431Y-50759431D01*
X36329431Y-50759431D02*
X38590000Y-53020000D01*
X40180260Y-67310000D02*
X40186363Y-67310000D01*
X40186363Y-67310000D02*
X41960865Y-69084502D01*
X41960865Y-69084502D02*
X61605746Y-69084502D01*
X61605746Y-69084502D02*
X63095509Y-67594739D01*
X63095509Y-67594739D02*
X63095509Y-65864551D01*
X65417771Y-63542289D02*
X65417771Y-59962196D01*
X63095509Y-65864551D02*
X65417771Y-63542289D01*
X65417771Y-59962196D02*
X63505054Y-58049479D01*
X63505054Y-58049479D02*
X63505054Y-53053006D01*
X63505054Y-53053006D02*
X64747140Y-51810920D01*
X37474999Y-64604999D02*
X37475259Y-64604999D01*
X37475259Y-64604999D02*
X40180260Y-67310000D01*
X37474999Y-64604999D02*
X37474999Y-55979999D01*
X37474999Y-55979999D02*
X37539999Y-55914999D01*
X37539999Y-55914999D02*
X38660001Y-55914999D01*
X27962860Y-47249080D02*
X31035082Y-47249080D01*
X31035082Y-47249080D02*
X32140037Y-48354035D01*
X32140037Y-48354035D02*
X37704035Y-48354035D01*
X37704035Y-48354035D02*
X37940000Y-48590000D01*
X39690000Y-51120000D02*
X39140000Y-51120000D01*
X40415001Y-51845001D02*
X39690000Y-51120000D01*
X40415001Y-54159999D02*
X40415001Y-51845001D01*
X38660001Y-55914999D02*
X40415001Y-54159999D01*
X39285002Y-56540000D02*
X38660001Y-55914999D01*
X39370000Y-56540000D02*
X39285002Y-56540000D01*
X39370000Y-56990000D02*
X39370000Y-56540000D01*
X39140000Y-51120000D02*
X38590000Y-51120000D01*
X37940000Y-50470000D02*
X37940000Y-48590000D01*
X38590000Y-51120000D02*
X37940000Y-50470000D01*
X37940000Y-48590000D02*
X38590000Y-47940000D01*
X38590000Y-47940000D02*
X39140000Y-47940000D01*
X26396925Y-44940891D02*
X28316381Y-43021435D01*
X27962860Y-51828700D02*
X26396925Y-50262765D01*
X35823373Y-43021435D02*
X36247637Y-43021435D01*
X28316381Y-43021435D02*
X35823373Y-43021435D01*
X26396925Y-50262765D02*
X26396925Y-44940891D01*
X37732236Y-45182236D02*
X37328038Y-45182236D01*
X38590000Y-46040000D02*
X37732236Y-45182236D01*
X39140000Y-46040000D02*
X38590000Y-46040000D01*
X54569360Y-52029360D02*
X57081420Y-49517300D01*
X57081420Y-49517300D02*
X59715400Y-49517300D01*
X59715400Y-47231300D02*
X56958418Y-47231300D01*
X53355447Y-53408281D02*
X53355447Y-53832545D01*
X56958418Y-47231300D02*
X53060364Y-51129354D01*
X53060364Y-51129354D02*
X53060364Y-53113198D01*
X53060364Y-53113198D02*
X53355447Y-53408281D01*
X53355447Y-59705447D02*
X53355447Y-54256809D01*
X53355447Y-54256809D02*
X53355447Y-53832545D01*
X54569360Y-60919360D02*
X53355447Y-59705447D01*
X52132108Y-54586429D02*
X52132108Y-55010693D01*
X52132108Y-45576612D02*
X52132108Y-54586429D01*
X54569360Y-43139360D02*
X52132108Y-45576612D01*
X54569360Y-43139360D02*
X57914540Y-43139360D01*
X57914540Y-43139360D02*
X59715400Y-44940220D01*
X62230000Y-52956460D02*
X62230000Y-52491136D01*
X62230000Y-52491136D02*
X60947979Y-51209115D01*
X60947979Y-51209115D02*
X60947979Y-49658861D01*
X60947979Y-49658861D02*
X61630561Y-48976279D01*
X61630561Y-48976279D02*
X62230000Y-48376840D01*
X30480000Y-55265320D02*
X26710001Y-59035319D01*
X26710001Y-59035319D02*
X26710001Y-67350001D01*
X26710001Y-67350001D02*
X29210000Y-69850000D01*
X30480000Y-52974240D02*
X30480000Y-50683160D01*
X37180000Y-67310000D02*
X36180511Y-66310511D01*
X36180511Y-66310511D02*
X36180511Y-60965831D01*
X36180511Y-60965831D02*
X31079439Y-55864759D01*
X31079439Y-55864759D02*
X30480000Y-55265320D01*
X43599995Y-59182000D02*
X42361919Y-60420076D01*
X44450000Y-58331995D02*
X43599995Y-59182000D01*
X39370000Y-61320696D02*
X39370000Y-62390000D01*
X44450000Y-56990000D02*
X44450000Y-58331995D01*
X40270620Y-60420076D02*
X39370000Y-61320696D01*
X42361919Y-60420076D02*
X40270620Y-60420076D01*
X45720000Y-46040000D02*
X45720000Y-43942000D01*
X45720000Y-42070000D02*
X45720000Y-43942000D01*
X43180000Y-62390000D02*
X43180000Y-62840000D01*
X43180000Y-62840000D02*
X43805001Y-63465001D01*
X43805001Y-63465001D02*
X45094999Y-63465001D01*
X45720000Y-62840000D02*
X45720000Y-62390000D01*
X45094999Y-63465001D02*
X45720000Y-62840000D01*
X49180000Y-67310000D02*
X49180000Y-65300000D01*
X49180000Y-65300000D02*
X46270000Y-62390000D01*
X46270000Y-62390000D02*
X45720000Y-62390000D01*
X62230000Y-46085760D02*
X62230000Y-48376840D01*
X30480000Y-55265320D02*
X30480000Y-52974240D01*
X59715400Y-54099460D02*
X61087000Y-54099460D01*
X61087000Y-54099460D02*
X62230000Y-52956460D01*
X39123901Y-44036099D02*
X39067941Y-43980139D01*
X39067941Y-43980139D02*
X30920764Y-43980139D01*
X30920764Y-43980139D02*
X28887809Y-46013094D01*
X28887809Y-46013094D02*
X27495326Y-46013094D01*
X27495326Y-46013094D02*
X26983788Y-46524632D01*
X26983788Y-46524632D02*
X26983788Y-48558548D01*
X26983788Y-48558548D02*
X27365961Y-48940721D01*
X27365961Y-48940721D02*
X27965400Y-49540160D01*
X40640000Y-42070000D02*
X40640000Y-42520000D01*
X40640000Y-42520000D02*
X39123901Y-44036099D01*
X45453292Y-54935011D02*
X45153293Y-55235010D01*
X45720000Y-54668303D02*
X45453292Y-54935011D01*
X45720000Y-53020000D02*
X45720000Y-54668303D01*
X41910000Y-56990000D02*
X41910000Y-58039000D01*
X41910000Y-58039000D02*
X41275000Y-58674000D01*
X46695001Y-49515001D02*
X45720000Y-48540000D01*
X46695001Y-51730001D02*
X46695001Y-49515001D01*
X45359997Y-51795001D02*
X46630001Y-51795001D01*
X46630001Y-51795001D02*
X46695001Y-51730001D01*
X45720000Y-48540000D02*
X45720000Y-47940000D01*
X44744999Y-53155001D02*
X44744999Y-52409999D01*
X41910000Y-55990000D02*
X44744999Y-53155001D01*
X44744999Y-52409999D02*
X45359997Y-51795001D01*
X41910000Y-56990000D02*
X41910000Y-55990000D01*
X40640000Y-61940000D02*
X40640000Y-62390000D01*
X41469351Y-61110649D02*
X40640000Y-61940000D01*
X43234353Y-61110649D02*
X41469351Y-61110649D01*
X50770671Y-53574331D02*
X43234353Y-61110649D01*
X50770671Y-41840031D02*
X50770671Y-53574331D01*
X49570640Y-40640000D02*
X50770671Y-41840031D01*
X49570640Y-58420000D02*
X47970000Y-58420000D01*
X47970000Y-58420000D02*
X44450000Y-61940000D01*
X44450000Y-61940000D02*
X44450000Y-62390000D01*
X49570640Y-49530000D02*
X48695611Y-50405029D01*
X48695611Y-50405029D02*
X48695611Y-53014389D01*
X48695611Y-53014389D02*
X45720000Y-55990000D01*
X45720000Y-55990000D02*
X45720000Y-56990000D01*
X44578068Y-65508068D02*
X41910000Y-62840000D01*
X45544243Y-68634491D02*
X44578068Y-67668316D01*
X57095509Y-68634491D02*
X45544243Y-68634491D01*
X44578068Y-67668316D02*
X44578068Y-65508068D01*
X58420000Y-67310000D02*
X57095509Y-68634491D01*
X43180000Y-56990000D02*
X43180000Y-57990000D01*
X41588467Y-59581533D02*
X39706534Y-59581533D01*
X43180000Y-57990000D02*
X41588467Y-59581533D01*
X39706534Y-59581533D02*
X38100000Y-61188067D01*
X38100000Y-61188067D02*
X38100000Y-62390000D01*
X41910000Y-62840000D02*
X41910000Y-62390000D01*
X38100000Y-62390000D02*
X38100000Y-62840000D01*
X38100000Y-62840000D02*
X38725001Y-63465001D01*
X38725001Y-63465001D02*
X41284999Y-63465001D01*
X41284999Y-63465001D02*
X41910000Y-62840000D01*
X53800000Y-31750000D02*
X47804999Y-37745001D01*
X47804999Y-37745001D02*
X45075001Y-37745001D01*
X44450000Y-37120000D02*
X44450000Y-36670000D01*
X45075001Y-37745001D02*
X44450000Y-37120000D01*
X40640000Y-37120000D02*
X40640000Y-36670000D01*
X41265001Y-37745001D02*
X40640000Y-37120000D01*
X42535001Y-35679997D02*
X42535001Y-37680001D01*
X42470001Y-37745001D02*
X41265001Y-37745001D01*
X42535001Y-37680001D02*
X42470001Y-37745001D01*
X42619999Y-35594999D02*
X42535001Y-35679997D01*
X45094999Y-35594999D02*
X42619999Y-35594999D01*
X45720000Y-36220000D02*
X45094999Y-35594999D01*
X45720000Y-36670000D02*
X45720000Y-36220000D01*
X47800000Y-31750000D02*
X45720000Y-33830000D01*
X45720000Y-33830000D02*
X45720000Y-36670000D01*
X35560000Y-31750000D02*
X36884491Y-33074491D01*
X36884491Y-33074491D02*
X38764491Y-33074491D01*
X38764491Y-33074491D02*
X41910000Y-36220000D01*
X41910000Y-36220000D02*
X41910000Y-36670000D01*
X38227000Y-33782000D02*
X39995001Y-35550001D01*
X39995001Y-35550001D02*
X39995001Y-37883588D01*
X39995001Y-37883588D02*
X43180000Y-41068587D01*
X43180000Y-41068587D02*
X43180000Y-41070000D01*
X43180000Y-41070000D02*
X43180000Y-42070000D01*
X32560000Y-31750000D02*
X34592000Y-33782000D01*
X34592000Y-33782000D02*
X38227000Y-33782000D01*
X51435000Y-47625000D02*
X51435000Y-48049264D01*
X51220682Y-58546005D02*
X48679687Y-61087000D01*
X51220682Y-48263582D02*
X51220682Y-58546005D01*
X48679687Y-61087000D02*
X46990000Y-61087000D01*
X51435000Y-48049264D02*
X51220682Y-48263582D01*
X38100000Y-42070000D02*
X38100000Y-41620000D01*
X38100000Y-41620000D02*
X39370000Y-40350000D01*
X39370000Y-40350000D02*
X39370000Y-37670000D01*
X39370000Y-37670000D02*
X39370000Y-36670000D01*
X43824999Y-43145001D02*
X44450000Y-42520000D01*
X44450000Y-42520000D02*
X44450000Y-42070000D01*
X39370000Y-42070000D02*
X39370000Y-41620000D01*
X39370000Y-41620000D02*
X39995001Y-40994999D01*
X39995001Y-40994999D02*
X42470001Y-40994999D01*
X42470001Y-40994999D02*
X42535001Y-41059999D01*
X42535001Y-41059999D02*
X42535001Y-43060003D01*
X42535001Y-43060003D02*
X42619999Y-43145001D01*
X42619999Y-43145001D02*
X43824999Y-43145001D01*
M02*
