G04 #@! TF.FileFunction,Legend,Bot*
%FSLAX46Y46*%
G04 Gerber Fmt 4.6, Leading zero omitted, Abs format (unit mm)*
G04 Created by KiCad (PCBNEW 4.0.5) date *
%MOMM*%
%LPD*%
G01*
G04 APERTURE LIST*
%ADD10C,0.100000*%
%ADD11C,0.300000*%
%ADD12C,0.304800*%
G04 APERTURE END LIST*
D10*
D11*
X41373095Y-43922191D02*
X40754048Y-43488858D01*
X41373095Y-43179334D02*
X40073095Y-43179334D01*
X40073095Y-43674572D01*
X40135000Y-43798381D01*
X40196905Y-43860286D01*
X40320714Y-43922191D01*
X40506429Y-43922191D01*
X40630238Y-43860286D01*
X40692143Y-43798381D01*
X40754048Y-43674572D01*
X40754048Y-43179334D01*
X41311190Y-44974572D02*
X41373095Y-44850762D01*
X41373095Y-44603143D01*
X41311190Y-44479334D01*
X41187381Y-44417429D01*
X40692143Y-44417429D01*
X40568333Y-44479334D01*
X40506429Y-44603143D01*
X40506429Y-44850762D01*
X40568333Y-44974572D01*
X40692143Y-45036477D01*
X40815952Y-45036477D01*
X40939762Y-44417429D01*
X40506429Y-45407906D02*
X40506429Y-45903144D01*
X40073095Y-45593620D02*
X41187381Y-45593620D01*
X41311190Y-45655525D01*
X41373095Y-45779334D01*
X41373095Y-45903144D01*
X41373095Y-46336477D02*
X40506429Y-46336477D01*
X40754048Y-46336477D02*
X40630238Y-46398382D01*
X40568333Y-46460286D01*
X40506429Y-46584096D01*
X40506429Y-46707905D01*
X41373095Y-47326953D02*
X41311190Y-47203144D01*
X41249286Y-47141239D01*
X41125476Y-47079334D01*
X40754048Y-47079334D01*
X40630238Y-47141239D01*
X40568333Y-47203144D01*
X40506429Y-47326953D01*
X40506429Y-47512667D01*
X40568333Y-47636477D01*
X40630238Y-47698382D01*
X40754048Y-47760286D01*
X41125476Y-47760286D01*
X41249286Y-47698382D01*
X41311190Y-47636477D01*
X41373095Y-47512667D01*
X41373095Y-47326953D01*
X40073095Y-48131715D02*
X41373095Y-48565048D01*
X40073095Y-48998381D01*
X40135000Y-50112667D02*
X40073095Y-49988858D01*
X40073095Y-49803143D01*
X40135000Y-49617429D01*
X40258810Y-49493620D01*
X40382619Y-49431715D01*
X40630238Y-49369810D01*
X40815952Y-49369810D01*
X41063571Y-49431715D01*
X41187381Y-49493620D01*
X41311190Y-49617429D01*
X41373095Y-49803143D01*
X41373095Y-49926953D01*
X41311190Y-50112667D01*
X41249286Y-50174572D01*
X40815952Y-50174572D01*
X40815952Y-49926953D01*
X41001667Y-50669810D02*
X41001667Y-51288858D01*
X41373095Y-50546001D02*
X40073095Y-50979334D01*
X41373095Y-51412667D01*
X41373095Y-52836477D02*
X40073095Y-52836477D01*
X40568333Y-52836477D02*
X40506429Y-52960286D01*
X40506429Y-53207905D01*
X40568333Y-53331715D01*
X40630238Y-53393620D01*
X40754048Y-53455524D01*
X41125476Y-53455524D01*
X41249286Y-53393620D01*
X41311190Y-53331715D01*
X41373095Y-53207905D01*
X41373095Y-52960286D01*
X41311190Y-52836477D01*
X41373095Y-54569810D02*
X40692143Y-54569810D01*
X40568333Y-54507905D01*
X40506429Y-54384095D01*
X40506429Y-54136476D01*
X40568333Y-54012667D01*
X41311190Y-54569810D02*
X41373095Y-54446000D01*
X41373095Y-54136476D01*
X41311190Y-54012667D01*
X41187381Y-53950762D01*
X41063571Y-53950762D01*
X40939762Y-54012667D01*
X40877857Y-54136476D01*
X40877857Y-54446000D01*
X40815952Y-54569810D01*
X41311190Y-55126952D02*
X41373095Y-55250762D01*
X41373095Y-55498381D01*
X41311190Y-55622190D01*
X41187381Y-55684095D01*
X41125476Y-55684095D01*
X41001667Y-55622190D01*
X40939762Y-55498381D01*
X40939762Y-55312666D01*
X40877857Y-55188857D01*
X40754048Y-55126952D01*
X40692143Y-55126952D01*
X40568333Y-55188857D01*
X40506429Y-55312666D01*
X40506429Y-55498381D01*
X40568333Y-55622190D01*
X41311190Y-56736476D02*
X41373095Y-56612666D01*
X41373095Y-56365047D01*
X41311190Y-56241238D01*
X41187381Y-56179333D01*
X40692143Y-56179333D01*
X40568333Y-56241238D01*
X40506429Y-56365047D01*
X40506429Y-56612666D01*
X40568333Y-56736476D01*
X40692143Y-56798381D01*
X40815952Y-56798381D01*
X40939762Y-56179333D01*
X41373095Y-57912667D02*
X40073095Y-57912667D01*
X41311190Y-57912667D02*
X41373095Y-57788857D01*
X41373095Y-57541238D01*
X41311190Y-57417429D01*
X41249286Y-57355524D01*
X41125476Y-57293619D01*
X40754048Y-57293619D01*
X40630238Y-57355524D01*
X40568333Y-57417429D01*
X40506429Y-57541238D01*
X40506429Y-57788857D01*
X40568333Y-57912667D01*
X43623095Y-40238859D02*
X43004048Y-39805526D01*
X43623095Y-39496002D02*
X42323095Y-39496002D01*
X42323095Y-39991240D01*
X42385000Y-40115049D01*
X42446905Y-40176954D01*
X42570714Y-40238859D01*
X42756429Y-40238859D01*
X42880238Y-40176954D01*
X42942143Y-40115049D01*
X43004048Y-39991240D01*
X43004048Y-39496002D01*
X43561190Y-41291240D02*
X43623095Y-41167430D01*
X43623095Y-40919811D01*
X43561190Y-40796002D01*
X43437381Y-40734097D01*
X42942143Y-40734097D01*
X42818333Y-40796002D01*
X42756429Y-40919811D01*
X42756429Y-41167430D01*
X42818333Y-41291240D01*
X42942143Y-41353145D01*
X43065952Y-41353145D01*
X43189762Y-40734097D01*
X43623095Y-42467431D02*
X42323095Y-42467431D01*
X43561190Y-42467431D02*
X43623095Y-42343621D01*
X43623095Y-42096002D01*
X43561190Y-41972193D01*
X43499286Y-41910288D01*
X43375476Y-41848383D01*
X43004048Y-41848383D01*
X42880238Y-41910288D01*
X42818333Y-41972193D01*
X42756429Y-42096002D01*
X42756429Y-42343621D01*
X42818333Y-42467431D01*
X43561190Y-43581716D02*
X43623095Y-43457906D01*
X43623095Y-43210287D01*
X43561190Y-43086478D01*
X43437381Y-43024573D01*
X42942143Y-43024573D01*
X42818333Y-43086478D01*
X42756429Y-43210287D01*
X42756429Y-43457906D01*
X42818333Y-43581716D01*
X42942143Y-43643621D01*
X43065952Y-43643621D01*
X43189762Y-43024573D01*
X43561190Y-44138859D02*
X43623095Y-44262669D01*
X43623095Y-44510288D01*
X43561190Y-44634097D01*
X43437381Y-44696002D01*
X43375476Y-44696002D01*
X43251667Y-44634097D01*
X43189762Y-44510288D01*
X43189762Y-44324573D01*
X43127857Y-44200764D01*
X43004048Y-44138859D01*
X42942143Y-44138859D01*
X42818333Y-44200764D01*
X42756429Y-44324573D01*
X42756429Y-44510288D01*
X42818333Y-44634097D01*
X43623095Y-45253145D02*
X42756429Y-45253145D01*
X42323095Y-45253145D02*
X42385000Y-45191240D01*
X42446905Y-45253145D01*
X42385000Y-45315050D01*
X42323095Y-45253145D01*
X42446905Y-45253145D01*
X42756429Y-46429336D02*
X43808810Y-46429336D01*
X43932619Y-46367431D01*
X43994524Y-46305526D01*
X44056429Y-46181717D01*
X44056429Y-45996002D01*
X43994524Y-45872193D01*
X43561190Y-46429336D02*
X43623095Y-46305526D01*
X43623095Y-46057907D01*
X43561190Y-45934098D01*
X43499286Y-45872193D01*
X43375476Y-45810288D01*
X43004048Y-45810288D01*
X42880238Y-45872193D01*
X42818333Y-45934098D01*
X42756429Y-46057907D01*
X42756429Y-46305526D01*
X42818333Y-46429336D01*
X42756429Y-47048383D02*
X43623095Y-47048383D01*
X42880238Y-47048383D02*
X42818333Y-47110288D01*
X42756429Y-47234097D01*
X42756429Y-47419811D01*
X42818333Y-47543621D01*
X42942143Y-47605526D01*
X43623095Y-47605526D01*
X43561190Y-48719811D02*
X43623095Y-48596001D01*
X43623095Y-48348382D01*
X43561190Y-48224573D01*
X43437381Y-48162668D01*
X42942143Y-48162668D01*
X42818333Y-48224573D01*
X42756429Y-48348382D01*
X42756429Y-48596001D01*
X42818333Y-48719811D01*
X42942143Y-48781716D01*
X43065952Y-48781716D01*
X43189762Y-48162668D01*
X43623095Y-49896002D02*
X42323095Y-49896002D01*
X43561190Y-49896002D02*
X43623095Y-49772192D01*
X43623095Y-49524573D01*
X43561190Y-49400764D01*
X43499286Y-49338859D01*
X43375476Y-49276954D01*
X43004048Y-49276954D01*
X42880238Y-49338859D01*
X42818333Y-49400764D01*
X42756429Y-49524573D01*
X42756429Y-49772192D01*
X42818333Y-49896002D01*
X43623095Y-51505525D02*
X42323095Y-51505525D01*
X42818333Y-51505525D02*
X42756429Y-51629334D01*
X42756429Y-51876953D01*
X42818333Y-52000763D01*
X42880238Y-52062668D01*
X43004048Y-52124572D01*
X43375476Y-52124572D01*
X43499286Y-52062668D01*
X43561190Y-52000763D01*
X43623095Y-51876953D01*
X43623095Y-51629334D01*
X43561190Y-51505525D01*
X42756429Y-52557905D02*
X43623095Y-52867429D01*
X42756429Y-53176953D02*
X43623095Y-52867429D01*
X43932619Y-52743620D01*
X43994524Y-52681715D01*
X44056429Y-52557905D01*
X43623095Y-55219810D02*
X42323095Y-55219810D01*
X43561190Y-55219810D02*
X43623095Y-55096000D01*
X43623095Y-54848381D01*
X43561190Y-54724572D01*
X43499286Y-54662667D01*
X43375476Y-54600762D01*
X43004048Y-54600762D01*
X42880238Y-54662667D01*
X42818333Y-54724572D01*
X42756429Y-54848381D01*
X42756429Y-55096000D01*
X42818333Y-55219810D01*
X43623095Y-55838857D02*
X42756429Y-55838857D01*
X42880238Y-55838857D02*
X42818333Y-55900762D01*
X42756429Y-56024571D01*
X42756429Y-56210285D01*
X42818333Y-56334095D01*
X42942143Y-56396000D01*
X43623095Y-56396000D01*
X42942143Y-56396000D02*
X42818333Y-56457904D01*
X42756429Y-56581714D01*
X42756429Y-56767428D01*
X42818333Y-56891238D01*
X42942143Y-56953143D01*
X43623095Y-56953143D01*
X43623095Y-57572190D02*
X42323095Y-57572190D01*
X43127857Y-57695999D02*
X43623095Y-58067428D01*
X42756429Y-58067428D02*
X43251667Y-57572190D01*
X42756429Y-58438857D02*
X42756429Y-58934095D01*
X43623095Y-58624571D02*
X42508810Y-58624571D01*
X42385000Y-58686476D01*
X42323095Y-58810285D01*
X42323095Y-58934095D01*
X43623095Y-59924571D02*
X42942143Y-59924571D01*
X42818333Y-59862666D01*
X42756429Y-59738856D01*
X42756429Y-59491237D01*
X42818333Y-59367428D01*
X43561190Y-59924571D02*
X43623095Y-59800761D01*
X43623095Y-59491237D01*
X43561190Y-59367428D01*
X43437381Y-59305523D01*
X43313571Y-59305523D01*
X43189762Y-59367428D01*
X43127857Y-59491237D01*
X43127857Y-59800761D01*
X43065952Y-59924571D01*
X43561190Y-60481713D02*
X43623095Y-60605523D01*
X43623095Y-60853142D01*
X43561190Y-60976951D01*
X43437381Y-61038856D01*
X43375476Y-61038856D01*
X43251667Y-60976951D01*
X43189762Y-60853142D01*
X43189762Y-60667427D01*
X43127857Y-60543618D01*
X43004048Y-60481713D01*
X42942143Y-60481713D01*
X42818333Y-60543618D01*
X42756429Y-60667427D01*
X42756429Y-60853142D01*
X42818333Y-60976951D01*
X43623095Y-61595999D02*
X42756429Y-61595999D01*
X42323095Y-61595999D02*
X42385000Y-61534094D01*
X42446905Y-61595999D01*
X42385000Y-61657904D01*
X42323095Y-61595999D01*
X42446905Y-61595999D01*
D12*
X52759429Y-41111714D02*
X52033714Y-40603714D01*
X52759429Y-40240857D02*
X51235429Y-40240857D01*
X51235429Y-40821429D01*
X51308000Y-40966571D01*
X51380571Y-41039143D01*
X51525714Y-41111714D01*
X51743429Y-41111714D01*
X51888571Y-41039143D01*
X51961143Y-40966571D01*
X52033714Y-40821429D01*
X52033714Y-40240857D01*
X51308000Y-58819143D02*
X51235429Y-58674000D01*
X51235429Y-58456286D01*
X51308000Y-58238571D01*
X51453143Y-58093429D01*
X51598286Y-58020857D01*
X51888571Y-57948286D01*
X52106286Y-57948286D01*
X52396571Y-58020857D01*
X52541714Y-58093429D01*
X52686857Y-58238571D01*
X52759429Y-58456286D01*
X52759429Y-58601429D01*
X52686857Y-58819143D01*
X52614286Y-58891714D01*
X52106286Y-58891714D01*
X52106286Y-58601429D01*
X51961143Y-49638857D02*
X52033714Y-49856571D01*
X52106286Y-49929143D01*
X52251429Y-50001714D01*
X52469143Y-50001714D01*
X52614286Y-49929143D01*
X52686857Y-49856571D01*
X52759429Y-49711429D01*
X52759429Y-49130857D01*
X51235429Y-49130857D01*
X51235429Y-49638857D01*
X51308000Y-49784000D01*
X51380571Y-49856571D01*
X51525714Y-49929143D01*
X51670857Y-49929143D01*
X51816000Y-49856571D01*
X51888571Y-49784000D01*
X51961143Y-49638857D01*
X51961143Y-49130857D01*
X56442429Y-42708286D02*
X57966429Y-43216286D01*
X56442429Y-43724286D01*
X56515000Y-45030572D02*
X56442429Y-44885429D01*
X56442429Y-44667715D01*
X56515000Y-44450000D01*
X56660143Y-44304858D01*
X56805286Y-44232286D01*
X57095571Y-44159715D01*
X57313286Y-44159715D01*
X57603571Y-44232286D01*
X57748714Y-44304858D01*
X57893857Y-44450000D01*
X57966429Y-44667715D01*
X57966429Y-44812858D01*
X57893857Y-45030572D01*
X57821286Y-45103143D01*
X57313286Y-45103143D01*
X57313286Y-44812858D01*
X57531000Y-45683715D02*
X57531000Y-46409429D01*
X57966429Y-45538572D02*
X56442429Y-46046572D01*
X57966429Y-46554572D01*
X56442429Y-48514001D02*
X56442429Y-48804287D01*
X56515000Y-48949429D01*
X56660143Y-49094572D01*
X56950429Y-49167144D01*
X57458429Y-49167144D01*
X57748714Y-49094572D01*
X57893857Y-48949429D01*
X57966429Y-48804287D01*
X57966429Y-48514001D01*
X57893857Y-48368858D01*
X57748714Y-48223715D01*
X57458429Y-48151144D01*
X56950429Y-48151144D01*
X56660143Y-48223715D01*
X56515000Y-48368858D01*
X56442429Y-48514001D01*
X56442429Y-49820286D02*
X57676143Y-49820286D01*
X57821286Y-49892858D01*
X57893857Y-49965429D01*
X57966429Y-50110572D01*
X57966429Y-50400858D01*
X57893857Y-50546000D01*
X57821286Y-50618572D01*
X57676143Y-50691143D01*
X56442429Y-50691143D01*
X56442429Y-51199143D02*
X56442429Y-52070000D01*
X57966429Y-51634571D02*
X56442429Y-51634571D01*
X57966429Y-52578000D02*
X56442429Y-52578000D01*
X56442429Y-53158572D01*
X56515000Y-53303714D01*
X56587571Y-53376286D01*
X56732714Y-53448857D01*
X56950429Y-53448857D01*
X57095571Y-53376286D01*
X57168143Y-53303714D01*
X57240714Y-53158572D01*
X57240714Y-52578000D01*
X56442429Y-54102000D02*
X57676143Y-54102000D01*
X57821286Y-54174572D01*
X57893857Y-54247143D01*
X57966429Y-54392286D01*
X57966429Y-54682572D01*
X57893857Y-54827714D01*
X57821286Y-54900286D01*
X57676143Y-54972857D01*
X56442429Y-54972857D01*
X56442429Y-55480857D02*
X56442429Y-56351714D01*
X57966429Y-55916285D02*
X56442429Y-55916285D01*
X34852429Y-43724286D02*
X36376429Y-44232286D01*
X34852429Y-44740286D01*
X34925000Y-46046572D02*
X34852429Y-45901429D01*
X34852429Y-45683715D01*
X34925000Y-45466000D01*
X35070143Y-45320858D01*
X35215286Y-45248286D01*
X35505571Y-45175715D01*
X35723286Y-45175715D01*
X36013571Y-45248286D01*
X36158714Y-45320858D01*
X36303857Y-45466000D01*
X36376429Y-45683715D01*
X36376429Y-45828858D01*
X36303857Y-46046572D01*
X36231286Y-46119143D01*
X35723286Y-46119143D01*
X35723286Y-45828858D01*
X35941000Y-46699715D02*
X35941000Y-47425429D01*
X36376429Y-46554572D02*
X34852429Y-47062572D01*
X36376429Y-47570572D01*
X36376429Y-49239715D02*
X34852429Y-49239715D01*
X36376429Y-49965429D02*
X34852429Y-49965429D01*
X36376429Y-50836286D01*
X34852429Y-50836286D01*
X36376429Y-51562000D02*
X34852429Y-51562000D01*
X34852429Y-52142572D01*
X34925000Y-52287714D01*
X34997571Y-52360286D01*
X35142714Y-52432857D01*
X35360429Y-52432857D01*
X35505571Y-52360286D01*
X35578143Y-52287714D01*
X35650714Y-52142572D01*
X35650714Y-51562000D01*
X34852429Y-53086000D02*
X36086143Y-53086000D01*
X36231286Y-53158572D01*
X36303857Y-53231143D01*
X36376429Y-53376286D01*
X36376429Y-53666572D01*
X36303857Y-53811714D01*
X36231286Y-53884286D01*
X36086143Y-53956857D01*
X34852429Y-53956857D01*
X34852429Y-54464857D02*
X34852429Y-55335714D01*
X36376429Y-54900285D02*
X34852429Y-54900285D01*
D11*
X46052619Y-70424524D02*
X45629285Y-71694524D01*
X45205952Y-70424524D01*
X44843095Y-71634048D02*
X44661667Y-71694524D01*
X44359286Y-71694524D01*
X44238333Y-71634048D01*
X44177857Y-71573571D01*
X44117381Y-71452619D01*
X44117381Y-71331667D01*
X44177857Y-71210714D01*
X44238333Y-71150238D01*
X44359286Y-71089762D01*
X44601190Y-71029286D01*
X44722143Y-70968810D01*
X44782619Y-70908333D01*
X44843095Y-70787381D01*
X44843095Y-70666429D01*
X44782619Y-70545476D01*
X44722143Y-70485000D01*
X44601190Y-70424524D01*
X44298810Y-70424524D01*
X44117381Y-70485000D01*
X43331190Y-71089762D02*
X43331190Y-71694524D01*
X43754524Y-70424524D02*
X43331190Y-71089762D01*
X42907857Y-70424524D01*
X42484524Y-71694524D02*
X42484524Y-70424524D01*
X41758810Y-71694524D01*
X41758810Y-70424524D01*
X40428334Y-71573571D02*
X40488810Y-71634048D01*
X40670239Y-71694524D01*
X40791191Y-71694524D01*
X40972619Y-71634048D01*
X41093572Y-71513095D01*
X41154048Y-71392143D01*
X41214524Y-71150238D01*
X41214524Y-70968810D01*
X41154048Y-70726905D01*
X41093572Y-70605952D01*
X40972619Y-70485000D01*
X40791191Y-70424524D01*
X40670239Y-70424524D01*
X40488810Y-70485000D01*
X40428334Y-70545476D01*
X38190714Y-27244524D02*
X37888333Y-28514524D01*
X37646429Y-27607381D01*
X37404524Y-28514524D01*
X37102143Y-27244524D01*
X36618333Y-28514524D02*
X36618333Y-27244524D01*
X36013571Y-28514524D02*
X36013571Y-27244524D01*
X35711190Y-27244524D01*
X35529762Y-27305000D01*
X35408809Y-27425952D01*
X35348333Y-27546905D01*
X35287857Y-27788810D01*
X35287857Y-27970238D01*
X35348333Y-28212143D01*
X35408809Y-28333095D01*
X35529762Y-28454048D01*
X35711190Y-28514524D01*
X36013571Y-28514524D01*
X34925000Y-27244524D02*
X34199285Y-27244524D01*
X34562142Y-28514524D02*
X34562142Y-27244524D01*
X33775952Y-28514524D02*
X33775952Y-27244524D01*
X33775952Y-27849286D02*
X33050238Y-27849286D01*
X33050238Y-28514524D02*
X33050238Y-27244524D01*
X55456666Y-27849286D02*
X55033333Y-27849286D01*
X54851904Y-28514524D02*
X55456666Y-28514524D01*
X55456666Y-27244524D01*
X54851904Y-27244524D01*
X54489047Y-27244524D02*
X54065713Y-28514524D01*
X53642380Y-27244524D01*
X53219047Y-27849286D02*
X52795714Y-27849286D01*
X52614285Y-28514524D02*
X53219047Y-28514524D01*
X53219047Y-27244524D01*
X52614285Y-27244524D01*
X52069999Y-28514524D02*
X52069999Y-27244524D01*
X51344285Y-28514524D01*
X51344285Y-27244524D01*
X49832380Y-27184048D02*
X50920952Y-28816905D01*
X49167142Y-27244524D02*
X48925238Y-27244524D01*
X48804285Y-27305000D01*
X48683333Y-27425952D01*
X48622857Y-27667857D01*
X48622857Y-28091190D01*
X48683333Y-28333095D01*
X48804285Y-28454048D01*
X48925238Y-28514524D01*
X49167142Y-28514524D01*
X49288095Y-28454048D01*
X49409047Y-28333095D01*
X49469523Y-28091190D01*
X49469523Y-27667857D01*
X49409047Y-27425952D01*
X49288095Y-27305000D01*
X49167142Y-27244524D01*
X48078571Y-28514524D02*
X48078571Y-27244524D01*
X47776190Y-27244524D01*
X47594762Y-27305000D01*
X47473809Y-27425952D01*
X47413333Y-27546905D01*
X47352857Y-27788810D01*
X47352857Y-27970238D01*
X47413333Y-28212143D01*
X47473809Y-28333095D01*
X47594762Y-28454048D01*
X47776190Y-28514524D01*
X48078571Y-28514524D01*
X46808571Y-28514524D02*
X46808571Y-27244524D01*
X46506190Y-27244524D01*
X46324762Y-27305000D01*
X46203809Y-27425952D01*
X46143333Y-27546905D01*
X46082857Y-27788810D01*
X46082857Y-27970238D01*
X46143333Y-28212143D01*
X46203809Y-28333095D01*
X46324762Y-28454048D01*
X46506190Y-28514524D01*
X46808571Y-28514524D01*
X61625237Y-70424524D02*
X61383333Y-70424524D01*
X61262380Y-70485000D01*
X61141428Y-70605952D01*
X61080952Y-70847857D01*
X61080952Y-71271190D01*
X61141428Y-71513095D01*
X61262380Y-71634048D01*
X61383333Y-71694524D01*
X61625237Y-71694524D01*
X61746190Y-71634048D01*
X61867142Y-71513095D01*
X61927618Y-71271190D01*
X61927618Y-70847857D01*
X61867142Y-70605952D01*
X61746190Y-70485000D01*
X61625237Y-70424524D01*
X60536666Y-71694524D02*
X60536666Y-70424524D01*
X59810952Y-71694524D01*
X59810952Y-70424524D01*
X58299047Y-70364048D02*
X59387619Y-71996905D01*
X57633809Y-70424524D02*
X57391905Y-70424524D01*
X57270952Y-70485000D01*
X57150000Y-70605952D01*
X57089524Y-70847857D01*
X57089524Y-71271190D01*
X57150000Y-71513095D01*
X57270952Y-71634048D01*
X57391905Y-71694524D01*
X57633809Y-71694524D01*
X57754762Y-71634048D01*
X57875714Y-71513095D01*
X57936190Y-71271190D01*
X57936190Y-70847857D01*
X57875714Y-70605952D01*
X57754762Y-70485000D01*
X57633809Y-70424524D01*
X56121905Y-71029286D02*
X56545238Y-71029286D01*
X56545238Y-71694524D02*
X56545238Y-70424524D01*
X55940476Y-70424524D01*
X55033334Y-71029286D02*
X55456667Y-71029286D01*
X55456667Y-71694524D02*
X55456667Y-70424524D01*
X54851905Y-70424524D01*
M02*
