M48
;DRILL file {KiCad 4.0.5} date 2017 January 18, Wednesday 00:06:06
;FORMAT={2:4/ absolute / inch / suppress leading zeros}
FMAT,2
INCH,TZ
T1C0.016
T2C0.031
T3C0.035
T4C0.035
T5C0.110
T6C0.126
%
G90
G05
M72
T1
X14271Y-16938
X14696Y-17788
X15050Y-15000
X15403Y-17337
X15500Y-15886
X16250Y-23100
X17000Y-15050
X17165Y-23300
X17777Y-21746
X18000Y-17300
X18500Y-24050
X20250Y-18750
X20524Y-21658
X21006Y-21194
T2
X11540Y-12500
X12819Y-12500
X14000Y-12500
X14540Y-26500
X15181Y-12500
X15819Y-26500
X16460Y-12500
X17000Y-26500
X17540Y-12500
X18181Y-26500
X18819Y-12500
X19460Y-26500
X20000Y-12500
X20540Y-26500
X21181Y-12500
X21819Y-26500
X22460Y-12500
X23000Y-26500
X24181Y-26500
X25460Y-26500
T3
X19516Y-16000
X19516Y-19500
X19516Y-23000
X21484Y-15016
X21484Y-16984
X21484Y-18516
X21484Y-20484
X21484Y-22016
X21484Y-23984
T4
X11009Y-17701
X11009Y-18602
X11009Y-20405
X11009Y-21307
X11010Y-19504
X12000Y-18151
X12000Y-19053
X12000Y-19954
X12000Y-20856
X12000Y-21758
X12990Y-17701
X12990Y-18602
X12990Y-19505
X12990Y-20405
X12990Y-21307
X23510Y-17693
X23510Y-18595
X23510Y-19495
X23510Y-20398
X23510Y-21299
X24500Y-17242
X24500Y-18144
X24500Y-19046
X24500Y-19947
X24500Y-20849
X25490Y-19496
X25491Y-17693
X25491Y-18595
X25491Y-20398
X25491Y-21299
T5
X12000Y-14700
X12000Y-24500
X24500Y-14500
X24500Y-24300
T6
X11500Y-27500
X25000Y-11500
T0
M30
