G04 #@! TF.FileFunction,Copper,L2,Bot,Signal*
%FSLAX46Y46*%
G04 Gerber Fmt 4.6, Leading zero omitted, Abs format (unit mm)*
G04 Created by KiCad (PCBNEW 4.0.5) date 2017 January 18, Wednesday 00:08:16*
%MOMM*%
%LPD*%
G01*
G04 APERTURE LIST*
%ADD10C,0.100000*%
%ADD11C,5.000000*%
%ADD12C,1.750060*%
%ADD13C,5.080000*%
%ADD14C,1.300000*%
%ADD15C,1.305560*%
%ADD16R,1.305560X1.305560*%
%ADD17C,0.600000*%
%ADD18C,0.370000*%
%ADD19C,0.250000*%
%ADD20C,0.254000*%
G04 APERTURE END LIST*
D10*
D11*
X63500000Y-29210000D03*
X29210000Y-69850000D03*
D12*
X54569360Y-43139360D03*
X49570640Y-40640000D03*
X54569360Y-38140640D03*
X54569360Y-60919360D03*
X49570640Y-58420000D03*
X54569360Y-55920640D03*
X54569360Y-52029360D03*
X49570640Y-49530000D03*
X54569360Y-47030640D03*
D13*
X62230000Y-36830000D03*
D14*
X59715400Y-49517300D03*
X59715400Y-47231300D03*
X59715400Y-44940220D03*
X59715400Y-51810920D03*
X59715400Y-54099460D03*
X62230000Y-50665380D03*
X62230000Y-48376840D03*
X62230000Y-46085760D03*
X62230000Y-43794680D03*
D13*
X62230000Y-61722000D03*
D14*
X62230000Y-52956460D03*
X64747140Y-44940220D03*
X64747140Y-47231300D03*
X64744600Y-49519840D03*
X64747140Y-51810920D03*
X64747140Y-54099460D03*
D13*
X30480000Y-62230000D03*
D14*
X32994600Y-49542700D03*
X32994600Y-51828700D03*
X32994600Y-54119780D03*
X32994600Y-47249080D03*
X32994600Y-44960540D03*
X30480000Y-48394620D03*
X30480000Y-50683160D03*
X30480000Y-52974240D03*
X30480000Y-55265320D03*
D13*
X30480000Y-37338000D03*
D14*
X30480000Y-46103540D03*
X27962860Y-54119780D03*
X27962860Y-51828700D03*
X27965400Y-49540160D03*
X27962860Y-47249080D03*
X27962860Y-44960540D03*
D15*
X40180260Y-67310000D03*
X43180000Y-67310000D03*
X46179740Y-67310000D03*
D16*
X36931600Y-67310000D03*
X49428400Y-67310000D03*
D15*
X38559740Y-31750000D03*
X35560000Y-31750000D03*
X32560260Y-31750000D03*
D16*
X41808400Y-31750000D03*
X29311600Y-31750000D03*
D15*
X53799740Y-31750000D03*
X50800000Y-31750000D03*
X47800260Y-31750000D03*
D16*
X57048400Y-31750000D03*
X44551600Y-31750000D03*
D15*
X55420260Y-67310000D03*
X58420000Y-67310000D03*
X61419740Y-67310000D03*
D16*
X52171600Y-67310000D03*
X64668400Y-67310000D03*
D17*
X38227000Y-38100000D03*
X43180000Y-38227000D03*
X36247637Y-43021435D03*
X37328038Y-45182236D03*
X53355447Y-53832545D03*
X52132108Y-55010693D03*
X43599995Y-59182000D03*
X45720000Y-43942000D03*
X39123901Y-44036099D03*
X45153293Y-55235010D03*
X41275000Y-58674000D03*
X51435000Y-47625000D03*
X46990000Y-61087000D03*
X39370000Y-40350000D03*
D18*
X43180000Y-38227000D02*
X42483869Y-38923131D01*
X39050131Y-38923131D02*
X38354000Y-38227000D01*
X42483869Y-38923131D02*
X39050131Y-38923131D01*
X38354000Y-38227000D02*
X38227000Y-38100000D01*
D19*
X62230000Y-50665380D02*
X61695336Y-50665380D01*
X53578908Y-51243765D02*
X36138364Y-51243765D01*
X61695336Y-50665380D02*
X60962878Y-51397838D01*
X59926627Y-53042695D02*
X57358742Y-53042695D01*
X60962878Y-51397838D02*
X60962878Y-52006444D01*
X60962878Y-52006444D02*
X59926627Y-53042695D01*
X55145376Y-50829329D02*
X53993344Y-50829329D01*
X57358742Y-53042695D02*
X55145376Y-50829329D01*
X53993344Y-50829329D02*
X53578908Y-51243765D01*
X36138364Y-51243765D02*
X33289219Y-48394620D01*
X33289219Y-48394620D02*
X30480000Y-48394620D01*
X64747140Y-47231300D02*
X61297978Y-47231300D01*
X37628037Y-45482235D02*
X37328038Y-45182236D01*
X61297978Y-47231300D02*
X60276538Y-48252740D01*
X60276538Y-48252740D02*
X40398542Y-48252740D01*
X40398542Y-48252740D02*
X37628037Y-45482235D01*
X36547636Y-43321434D02*
X36247637Y-43021435D01*
X37328038Y-44101836D02*
X36547636Y-43321434D01*
X37328038Y-45182236D02*
X37328038Y-44101836D01*
X32994600Y-49542700D02*
X35481260Y-52029360D01*
X35481260Y-52029360D02*
X53331881Y-52029360D01*
X53331881Y-52029360D02*
X54569360Y-52029360D01*
X32994600Y-51828700D02*
X34124900Y-52959000D01*
X34124900Y-52959000D02*
X52451000Y-52959000D01*
X52451000Y-52959000D02*
X53324545Y-53832545D01*
X53324545Y-53832545D02*
X53355447Y-53832545D01*
X50980437Y-53859022D02*
X51832109Y-54710694D01*
X34103094Y-53859022D02*
X50980437Y-53859022D01*
X33842336Y-54119780D02*
X34103094Y-53859022D01*
X32994600Y-54119780D02*
X33842336Y-54119780D01*
X51832109Y-54710694D02*
X52132108Y-55010693D01*
X32994600Y-47249080D02*
X36539274Y-50793754D01*
X36539274Y-50793754D02*
X53392509Y-50793754D01*
X53392509Y-50793754D02*
X53806944Y-50379318D01*
X53806944Y-50379318D02*
X55331776Y-50379318D01*
X55331776Y-50379318D02*
X56763378Y-51810920D01*
X56763378Y-51810920D02*
X58867664Y-51810920D01*
X58867664Y-51810920D02*
X59715400Y-51810920D01*
X30480000Y-50683160D02*
X27667510Y-50683160D01*
X26987402Y-50003052D02*
X26987402Y-47717538D01*
X26987402Y-47717538D02*
X26987859Y-47717081D01*
X30382639Y-46006179D02*
X30480000Y-46103540D01*
X27667510Y-50683160D02*
X26987402Y-50003052D01*
X26987859Y-47717081D02*
X26987859Y-46512161D01*
X26987859Y-46512161D02*
X27493841Y-46006179D01*
X27493841Y-46006179D02*
X30382639Y-46006179D01*
X45466000Y-40513000D02*
X45466000Y-32416000D01*
X45466000Y-32416000D02*
X44800000Y-31750000D01*
X32994600Y-44960540D02*
X31623000Y-44960540D01*
X31623000Y-44960540D02*
X30480000Y-46103540D01*
X33462601Y-53144779D02*
X32526599Y-53144779D01*
X64403750Y-50673000D02*
X63498955Y-51577795D01*
X28882098Y-54119780D02*
X27962860Y-54119780D01*
X31551598Y-54119780D02*
X28882098Y-54119780D01*
X52048015Y-53409011D02*
X33726833Y-53409011D01*
X56120646Y-55695880D02*
X55095760Y-54670994D01*
X33726833Y-53409011D02*
X33462601Y-53144779D01*
X53309998Y-54670994D02*
X52048015Y-53409011D01*
X55095760Y-54670994D02*
X53309998Y-54670994D01*
X61272058Y-55695880D02*
X56120646Y-55695880D01*
X63498955Y-53468983D02*
X61272058Y-55695880D01*
X63498955Y-51577795D02*
X63498955Y-53468983D01*
X65798455Y-49993602D02*
X65119057Y-50673000D01*
X65798455Y-45991535D02*
X65798455Y-49993602D01*
X64747140Y-44940220D02*
X65798455Y-45991535D01*
X65119057Y-50673000D02*
X64403750Y-50673000D01*
X32526599Y-53144779D02*
X31551598Y-54119780D01*
X52637399Y-52508989D02*
X35111400Y-52508989D01*
X60180359Y-55245869D02*
X56307046Y-55245869D01*
X64744600Y-49519840D02*
X64052185Y-49519840D01*
X54268721Y-53207544D02*
X53335954Y-53207544D01*
X64052185Y-49519840D02*
X63615359Y-49956666D01*
X63615359Y-50824980D02*
X62593058Y-51847281D01*
X63615359Y-49956666D02*
X63615359Y-50824980D01*
X61759992Y-51847281D02*
X61016540Y-52590733D01*
X62593058Y-51847281D02*
X61759992Y-51847281D01*
X35111400Y-52508989D02*
X33275411Y-50673000D01*
X61016540Y-52590733D02*
X61016540Y-54409688D01*
X61016540Y-54409688D02*
X60180359Y-55245869D01*
X56307046Y-55245869D02*
X54268721Y-53207544D01*
X53335954Y-53207544D02*
X52637399Y-52508989D01*
X32116005Y-50673000D02*
X30983165Y-49540160D01*
X33275411Y-50673000D02*
X32116005Y-50673000D01*
X30983165Y-49540160D02*
X28813136Y-49540160D01*
X28813136Y-49540160D02*
X27965400Y-49540160D01*
X37211000Y-39116000D02*
X37211000Y-33099000D01*
X37211000Y-33099000D02*
X38560000Y-31750000D01*
X39123901Y-41028901D02*
X37211000Y-39116000D01*
X39123901Y-44036099D02*
X39123901Y-41028901D01*
X64747140Y-54099460D02*
X61725929Y-57120671D01*
X61725929Y-57120671D02*
X52997086Y-57120671D01*
X52997086Y-57120671D02*
X50185448Y-54309033D01*
X26443288Y-46017391D02*
X27500139Y-44960540D01*
X27500139Y-44960540D02*
X27962860Y-44960540D01*
X50185448Y-54309033D02*
X34463967Y-54309033D01*
X34463967Y-54309033D02*
X32532679Y-56240321D01*
X28259029Y-56240321D02*
X26443288Y-54424580D01*
X32532679Y-56240321D02*
X28259029Y-56240321D01*
X26443288Y-54424580D02*
X26443288Y-46017391D01*
X45153293Y-55235010D02*
X49671496Y-55235010D01*
X49671496Y-55235010D02*
X53125074Y-58688588D01*
X53125074Y-58688588D02*
X53125074Y-61667485D01*
X53125074Y-61667485D02*
X55420000Y-63962411D01*
X55420000Y-63962411D02*
X55420000Y-67310000D01*
X41275000Y-58674000D02*
X41272046Y-58676954D01*
X41272046Y-58676954D02*
X41272046Y-67132140D01*
X44855509Y-68634491D02*
X45180511Y-68309489D01*
X41272046Y-67132140D02*
X42774397Y-68634491D01*
X42774397Y-68634491D02*
X44855509Y-68634491D01*
X45180511Y-68309489D02*
X46180000Y-67310000D01*
X61419740Y-67310000D02*
X61419740Y-67157869D01*
X58910990Y-29329055D02*
X53220945Y-29329055D01*
X53220945Y-29329055D02*
X51799489Y-30750511D01*
X61419740Y-67157869D02*
X66294000Y-62283609D01*
X66294000Y-62283609D02*
X66294000Y-36712065D01*
X66294000Y-36712065D02*
X58910990Y-29329055D01*
X51799489Y-30750511D02*
X50800000Y-31750000D01*
X39370000Y-40350000D02*
X40060961Y-40350000D01*
X40060961Y-40350000D02*
X46446961Y-46736000D01*
X46446961Y-46736000D02*
X50546000Y-46736000D01*
X50546000Y-46736000D02*
X51435000Y-47625000D01*
X46990000Y-61087000D02*
X43586494Y-61087000D01*
X43586494Y-61087000D02*
X43180000Y-61493494D01*
X43180000Y-67310000D02*
X43180000Y-61493494D01*
D20*
G36*
X44218131Y-55420177D02*
X44360176Y-55763953D01*
X44622966Y-56027202D01*
X44966494Y-56169848D01*
X45338460Y-56170172D01*
X45682236Y-56028127D01*
X45715411Y-55995010D01*
X49356694Y-55995010D01*
X52365074Y-59003390D01*
X52365074Y-61667485D01*
X52422926Y-61958324D01*
X52587673Y-62204886D01*
X54660000Y-64277213D01*
X54660000Y-66249326D01*
X54329170Y-66579579D01*
X54132704Y-67052721D01*
X54132257Y-67565031D01*
X54327897Y-68038516D01*
X54689839Y-68401090D01*
X55162981Y-68597556D01*
X55675291Y-68598003D01*
X56148776Y-68402363D01*
X56511350Y-68040421D01*
X56707816Y-67567279D01*
X56707817Y-67565031D01*
X57131997Y-67565031D01*
X57327637Y-68038516D01*
X57689579Y-68401090D01*
X58162721Y-68597556D01*
X58675031Y-68598003D01*
X59148516Y-68402363D01*
X59511090Y-68040421D01*
X59707556Y-67567279D01*
X59708003Y-67054969D01*
X59512363Y-66581484D01*
X59150421Y-66218910D01*
X58677279Y-66022444D01*
X58164969Y-66021997D01*
X57691484Y-66217637D01*
X57328910Y-66579579D01*
X57132444Y-67052721D01*
X57131997Y-67565031D01*
X56707817Y-67565031D01*
X56708263Y-67054969D01*
X56512623Y-66581484D01*
X56180000Y-66248280D01*
X56180000Y-63962411D01*
X56122148Y-63671572D01*
X56122148Y-63671571D01*
X55957401Y-63425010D01*
X54934665Y-62402274D01*
X55423606Y-62200247D01*
X55848754Y-61775840D01*
X56079127Y-61221041D01*
X56079651Y-60620314D01*
X55850247Y-60065114D01*
X55425840Y-59639966D01*
X54871041Y-59409593D01*
X54270314Y-59409069D01*
X53885074Y-59568247D01*
X53885074Y-58688588D01*
X53827222Y-58397749D01*
X53662475Y-58151187D01*
X53391959Y-57880671D01*
X61725929Y-57880671D01*
X62016768Y-57822819D01*
X62263330Y-57658072D01*
X64537124Y-55384278D01*
X65001621Y-55384683D01*
X65474083Y-55189465D01*
X65534000Y-55129653D01*
X65534000Y-61968807D01*
X65404673Y-62098134D01*
X65405550Y-61093224D01*
X64923204Y-59925857D01*
X64030841Y-59031935D01*
X62864317Y-58547552D01*
X61601224Y-58546450D01*
X60433857Y-59028796D01*
X59539935Y-59921159D01*
X59055552Y-61087683D01*
X59054450Y-62350776D01*
X59536796Y-63518143D01*
X60429159Y-64412065D01*
X61595683Y-64896448D01*
X62605478Y-64897329D01*
X61480534Y-66022273D01*
X61164709Y-66021997D01*
X60691224Y-66217637D01*
X60328650Y-66579579D01*
X60132184Y-67052721D01*
X60131737Y-67565031D01*
X60327377Y-68038516D01*
X60689319Y-68401090D01*
X61162461Y-68597556D01*
X61674771Y-68598003D01*
X62148256Y-68402363D01*
X62510830Y-68040421D01*
X62695473Y-67595750D01*
X63380620Y-67595750D01*
X63380620Y-68089090D01*
X63477293Y-68322479D01*
X63655922Y-68501107D01*
X63889311Y-68597780D01*
X64382650Y-68597780D01*
X64541400Y-68439030D01*
X64541400Y-67437000D01*
X64795400Y-67437000D01*
X64795400Y-68439030D01*
X64954150Y-68597780D01*
X65447489Y-68597780D01*
X65680878Y-68501107D01*
X65859507Y-68322479D01*
X65956180Y-68089090D01*
X65956180Y-67595750D01*
X65797430Y-67437000D01*
X64795400Y-67437000D01*
X64541400Y-67437000D01*
X63539370Y-67437000D01*
X63380620Y-67595750D01*
X62695473Y-67595750D01*
X62707296Y-67567279D01*
X62707743Y-67054969D01*
X62675493Y-66976918D01*
X63121501Y-66530910D01*
X63380620Y-66530910D01*
X63380620Y-67024250D01*
X63539370Y-67183000D01*
X64541400Y-67183000D01*
X64541400Y-66180970D01*
X64795400Y-66180970D01*
X64795400Y-67183000D01*
X65797430Y-67183000D01*
X65956180Y-67024250D01*
X65956180Y-66530910D01*
X65859507Y-66297521D01*
X65680878Y-66118893D01*
X65447489Y-66022220D01*
X64954150Y-66022220D01*
X64795400Y-66180970D01*
X64541400Y-66180970D01*
X64382650Y-66022220D01*
X63889311Y-66022220D01*
X63655922Y-66118893D01*
X63477293Y-66297521D01*
X63380620Y-66530910D01*
X63121501Y-66530910D01*
X66525000Y-63127411D01*
X66525000Y-69772682D01*
X66280528Y-71001732D01*
X65628123Y-71978123D01*
X64651730Y-72630528D01*
X63422686Y-72875000D01*
X30099924Y-72875000D01*
X30984579Y-72508564D01*
X31266275Y-72085880D01*
X29210000Y-70029605D01*
X29195858Y-70043748D01*
X29016253Y-69864143D01*
X29030395Y-69850000D01*
X29389605Y-69850000D01*
X31445880Y-71906275D01*
X31868564Y-71624579D01*
X32345294Y-70472108D01*
X32344705Y-69224928D01*
X31868564Y-68075421D01*
X31445880Y-67793725D01*
X29389605Y-69850000D01*
X29030395Y-69850000D01*
X26974120Y-67793725D01*
X26551436Y-68075421D01*
X26185000Y-68961262D01*
X26185000Y-67614120D01*
X27153725Y-67614120D01*
X29210000Y-69670395D01*
X31266275Y-67614120D01*
X31254033Y-67595750D01*
X35643820Y-67595750D01*
X35643820Y-68089090D01*
X35740493Y-68322479D01*
X35919122Y-68501107D01*
X36152511Y-68597780D01*
X36645850Y-68597780D01*
X36804600Y-68439030D01*
X36804600Y-67437000D01*
X37058600Y-67437000D01*
X37058600Y-68439030D01*
X37217350Y-68597780D01*
X37710689Y-68597780D01*
X37944078Y-68501107D01*
X38122707Y-68322479D01*
X38219380Y-68089090D01*
X38219380Y-67595750D01*
X38188661Y-67565031D01*
X38892257Y-67565031D01*
X39087897Y-68038516D01*
X39449839Y-68401090D01*
X39922981Y-68597556D01*
X40435291Y-68598003D01*
X40908776Y-68402363D01*
X41188365Y-68123261D01*
X42236996Y-69171892D01*
X42483558Y-69336639D01*
X42774397Y-69394491D01*
X44855509Y-69394491D01*
X45146348Y-69336639D01*
X45392910Y-69171892D01*
X45967207Y-68597595D01*
X46434771Y-68598003D01*
X46908256Y-68402363D01*
X47270830Y-68040421D01*
X47455473Y-67595750D01*
X48140620Y-67595750D01*
X48140620Y-68089090D01*
X48237293Y-68322479D01*
X48415922Y-68501107D01*
X48649311Y-68597780D01*
X49142650Y-68597780D01*
X49301400Y-68439030D01*
X49301400Y-67437000D01*
X49555400Y-67437000D01*
X49555400Y-68439030D01*
X49714150Y-68597780D01*
X50207489Y-68597780D01*
X50440878Y-68501107D01*
X50619507Y-68322479D01*
X50716180Y-68089090D01*
X50716180Y-67595750D01*
X50883820Y-67595750D01*
X50883820Y-68089090D01*
X50980493Y-68322479D01*
X51159122Y-68501107D01*
X51392511Y-68597780D01*
X51885850Y-68597780D01*
X52044600Y-68439030D01*
X52044600Y-67437000D01*
X52298600Y-67437000D01*
X52298600Y-68439030D01*
X52457350Y-68597780D01*
X52950689Y-68597780D01*
X53184078Y-68501107D01*
X53362707Y-68322479D01*
X53459380Y-68089090D01*
X53459380Y-67595750D01*
X53300630Y-67437000D01*
X52298600Y-67437000D01*
X52044600Y-67437000D01*
X51042570Y-67437000D01*
X50883820Y-67595750D01*
X50716180Y-67595750D01*
X50557430Y-67437000D01*
X49555400Y-67437000D01*
X49301400Y-67437000D01*
X48299370Y-67437000D01*
X48140620Y-67595750D01*
X47455473Y-67595750D01*
X47467296Y-67567279D01*
X47467743Y-67054969D01*
X47272103Y-66581484D01*
X47221618Y-66530910D01*
X48140620Y-66530910D01*
X48140620Y-67024250D01*
X48299370Y-67183000D01*
X49301400Y-67183000D01*
X49301400Y-66180970D01*
X49555400Y-66180970D01*
X49555400Y-67183000D01*
X50557430Y-67183000D01*
X50716180Y-67024250D01*
X50716180Y-66530910D01*
X50883820Y-66530910D01*
X50883820Y-67024250D01*
X51042570Y-67183000D01*
X52044600Y-67183000D01*
X52044600Y-66180970D01*
X52298600Y-66180970D01*
X52298600Y-67183000D01*
X53300630Y-67183000D01*
X53459380Y-67024250D01*
X53459380Y-66530910D01*
X53362707Y-66297521D01*
X53184078Y-66118893D01*
X52950689Y-66022220D01*
X52457350Y-66022220D01*
X52298600Y-66180970D01*
X52044600Y-66180970D01*
X51885850Y-66022220D01*
X51392511Y-66022220D01*
X51159122Y-66118893D01*
X50980493Y-66297521D01*
X50883820Y-66530910D01*
X50716180Y-66530910D01*
X50619507Y-66297521D01*
X50440878Y-66118893D01*
X50207489Y-66022220D01*
X49714150Y-66022220D01*
X49555400Y-66180970D01*
X49301400Y-66180970D01*
X49142650Y-66022220D01*
X48649311Y-66022220D01*
X48415922Y-66118893D01*
X48237293Y-66297521D01*
X48140620Y-66530910D01*
X47221618Y-66530910D01*
X46910161Y-66218910D01*
X46437019Y-66022444D01*
X45924709Y-66021997D01*
X45451224Y-66217637D01*
X45088650Y-66579579D01*
X44892184Y-67052721D01*
X44891773Y-67523425D01*
X44540707Y-67874491D01*
X44339990Y-67874491D01*
X44467556Y-67567279D01*
X44468003Y-67054969D01*
X44272363Y-66581484D01*
X43940000Y-66248541D01*
X43940000Y-61847000D01*
X46427537Y-61847000D01*
X46459673Y-61879192D01*
X46803201Y-62021838D01*
X47175167Y-62022162D01*
X47518943Y-61880117D01*
X47782192Y-61617327D01*
X47924838Y-61273799D01*
X47925162Y-60901833D01*
X47783117Y-60558057D01*
X47520327Y-60294808D01*
X47176799Y-60152162D01*
X46804833Y-60151838D01*
X46461057Y-60293883D01*
X46427882Y-60327000D01*
X43586494Y-60327000D01*
X43295654Y-60384852D01*
X43049093Y-60549599D01*
X42642599Y-60956093D01*
X42477852Y-61202655D01*
X42420000Y-61493494D01*
X42420000Y-66249066D01*
X42088910Y-66579579D01*
X42032046Y-66716523D01*
X42032046Y-59239412D01*
X42067192Y-59204327D01*
X42209838Y-58860799D01*
X42209961Y-58719046D01*
X48060349Y-58719046D01*
X48289753Y-59274246D01*
X48714160Y-59699394D01*
X49268959Y-59929767D01*
X49869686Y-59930291D01*
X50424886Y-59700887D01*
X50850034Y-59276480D01*
X51080407Y-58721681D01*
X51080931Y-58120954D01*
X50851527Y-57565754D01*
X50427120Y-57140606D01*
X49872321Y-56910233D01*
X49271594Y-56909709D01*
X48716394Y-57139113D01*
X48291246Y-57563520D01*
X48060873Y-58118319D01*
X48060349Y-58719046D01*
X42209961Y-58719046D01*
X42210162Y-58488833D01*
X42068117Y-58145057D01*
X41805327Y-57881808D01*
X41461799Y-57739162D01*
X41089833Y-57738838D01*
X40746057Y-57880883D01*
X40482808Y-58143673D01*
X40340162Y-58487201D01*
X40339838Y-58859167D01*
X40481883Y-59202943D01*
X40512046Y-59233159D01*
X40512046Y-66053382D01*
X40437539Y-66022444D01*
X39925229Y-66021997D01*
X39451744Y-66217637D01*
X39089170Y-66579579D01*
X38892704Y-67052721D01*
X38892257Y-67565031D01*
X38188661Y-67565031D01*
X38060630Y-67437000D01*
X37058600Y-67437000D01*
X36804600Y-67437000D01*
X35802570Y-67437000D01*
X35643820Y-67595750D01*
X31254033Y-67595750D01*
X30984579Y-67191436D01*
X29832108Y-66714706D01*
X28584928Y-66715295D01*
X27435421Y-67191436D01*
X27153725Y-67614120D01*
X26185000Y-67614120D01*
X26185000Y-66530910D01*
X35643820Y-66530910D01*
X35643820Y-67024250D01*
X35802570Y-67183000D01*
X36804600Y-67183000D01*
X36804600Y-66180970D01*
X37058600Y-66180970D01*
X37058600Y-67183000D01*
X38060630Y-67183000D01*
X38219380Y-67024250D01*
X38219380Y-66530910D01*
X38122707Y-66297521D01*
X37944078Y-66118893D01*
X37710689Y-66022220D01*
X37217350Y-66022220D01*
X37058600Y-66180970D01*
X36804600Y-66180970D01*
X36645850Y-66022220D01*
X36152511Y-66022220D01*
X35919122Y-66118893D01*
X35740493Y-66297521D01*
X35643820Y-66530910D01*
X26185000Y-66530910D01*
X26185000Y-62858776D01*
X27304450Y-62858776D01*
X27786796Y-64026143D01*
X28679159Y-64920065D01*
X29845683Y-65404448D01*
X31108776Y-65405550D01*
X32276143Y-64923204D01*
X33170065Y-64030841D01*
X33654448Y-62864317D01*
X33655550Y-61601224D01*
X33173204Y-60433857D01*
X32280841Y-59539935D01*
X31114317Y-59055552D01*
X29851224Y-59054450D01*
X28683857Y-59536796D01*
X27789935Y-60429159D01*
X27305552Y-61595683D01*
X27304450Y-62858776D01*
X26185000Y-62858776D01*
X26185000Y-55241094D01*
X27721628Y-56777722D01*
X27968190Y-56942469D01*
X28259029Y-57000321D01*
X32532679Y-57000321D01*
X32823518Y-56942469D01*
X33070080Y-56777722D01*
X34778769Y-55069033D01*
X44218437Y-55069033D01*
X44218131Y-55420177D01*
X44218131Y-55420177D01*
G37*
X44218131Y-55420177D02*
X44360176Y-55763953D01*
X44622966Y-56027202D01*
X44966494Y-56169848D01*
X45338460Y-56170172D01*
X45682236Y-56028127D01*
X45715411Y-55995010D01*
X49356694Y-55995010D01*
X52365074Y-59003390D01*
X52365074Y-61667485D01*
X52422926Y-61958324D01*
X52587673Y-62204886D01*
X54660000Y-64277213D01*
X54660000Y-66249326D01*
X54329170Y-66579579D01*
X54132704Y-67052721D01*
X54132257Y-67565031D01*
X54327897Y-68038516D01*
X54689839Y-68401090D01*
X55162981Y-68597556D01*
X55675291Y-68598003D01*
X56148776Y-68402363D01*
X56511350Y-68040421D01*
X56707816Y-67567279D01*
X56707817Y-67565031D01*
X57131997Y-67565031D01*
X57327637Y-68038516D01*
X57689579Y-68401090D01*
X58162721Y-68597556D01*
X58675031Y-68598003D01*
X59148516Y-68402363D01*
X59511090Y-68040421D01*
X59707556Y-67567279D01*
X59708003Y-67054969D01*
X59512363Y-66581484D01*
X59150421Y-66218910D01*
X58677279Y-66022444D01*
X58164969Y-66021997D01*
X57691484Y-66217637D01*
X57328910Y-66579579D01*
X57132444Y-67052721D01*
X57131997Y-67565031D01*
X56707817Y-67565031D01*
X56708263Y-67054969D01*
X56512623Y-66581484D01*
X56180000Y-66248280D01*
X56180000Y-63962411D01*
X56122148Y-63671572D01*
X56122148Y-63671571D01*
X55957401Y-63425010D01*
X54934665Y-62402274D01*
X55423606Y-62200247D01*
X55848754Y-61775840D01*
X56079127Y-61221041D01*
X56079651Y-60620314D01*
X55850247Y-60065114D01*
X55425840Y-59639966D01*
X54871041Y-59409593D01*
X54270314Y-59409069D01*
X53885074Y-59568247D01*
X53885074Y-58688588D01*
X53827222Y-58397749D01*
X53662475Y-58151187D01*
X53391959Y-57880671D01*
X61725929Y-57880671D01*
X62016768Y-57822819D01*
X62263330Y-57658072D01*
X64537124Y-55384278D01*
X65001621Y-55384683D01*
X65474083Y-55189465D01*
X65534000Y-55129653D01*
X65534000Y-61968807D01*
X65404673Y-62098134D01*
X65405550Y-61093224D01*
X64923204Y-59925857D01*
X64030841Y-59031935D01*
X62864317Y-58547552D01*
X61601224Y-58546450D01*
X60433857Y-59028796D01*
X59539935Y-59921159D01*
X59055552Y-61087683D01*
X59054450Y-62350776D01*
X59536796Y-63518143D01*
X60429159Y-64412065D01*
X61595683Y-64896448D01*
X62605478Y-64897329D01*
X61480534Y-66022273D01*
X61164709Y-66021997D01*
X60691224Y-66217637D01*
X60328650Y-66579579D01*
X60132184Y-67052721D01*
X60131737Y-67565031D01*
X60327377Y-68038516D01*
X60689319Y-68401090D01*
X61162461Y-68597556D01*
X61674771Y-68598003D01*
X62148256Y-68402363D01*
X62510830Y-68040421D01*
X62695473Y-67595750D01*
X63380620Y-67595750D01*
X63380620Y-68089090D01*
X63477293Y-68322479D01*
X63655922Y-68501107D01*
X63889311Y-68597780D01*
X64382650Y-68597780D01*
X64541400Y-68439030D01*
X64541400Y-67437000D01*
X64795400Y-67437000D01*
X64795400Y-68439030D01*
X64954150Y-68597780D01*
X65447489Y-68597780D01*
X65680878Y-68501107D01*
X65859507Y-68322479D01*
X65956180Y-68089090D01*
X65956180Y-67595750D01*
X65797430Y-67437000D01*
X64795400Y-67437000D01*
X64541400Y-67437000D01*
X63539370Y-67437000D01*
X63380620Y-67595750D01*
X62695473Y-67595750D01*
X62707296Y-67567279D01*
X62707743Y-67054969D01*
X62675493Y-66976918D01*
X63121501Y-66530910D01*
X63380620Y-66530910D01*
X63380620Y-67024250D01*
X63539370Y-67183000D01*
X64541400Y-67183000D01*
X64541400Y-66180970D01*
X64795400Y-66180970D01*
X64795400Y-67183000D01*
X65797430Y-67183000D01*
X65956180Y-67024250D01*
X65956180Y-66530910D01*
X65859507Y-66297521D01*
X65680878Y-66118893D01*
X65447489Y-66022220D01*
X64954150Y-66022220D01*
X64795400Y-66180970D01*
X64541400Y-66180970D01*
X64382650Y-66022220D01*
X63889311Y-66022220D01*
X63655922Y-66118893D01*
X63477293Y-66297521D01*
X63380620Y-66530910D01*
X63121501Y-66530910D01*
X66525000Y-63127411D01*
X66525000Y-69772682D01*
X66280528Y-71001732D01*
X65628123Y-71978123D01*
X64651730Y-72630528D01*
X63422686Y-72875000D01*
X30099924Y-72875000D01*
X30984579Y-72508564D01*
X31266275Y-72085880D01*
X29210000Y-70029605D01*
X29195858Y-70043748D01*
X29016253Y-69864143D01*
X29030395Y-69850000D01*
X29389605Y-69850000D01*
X31445880Y-71906275D01*
X31868564Y-71624579D01*
X32345294Y-70472108D01*
X32344705Y-69224928D01*
X31868564Y-68075421D01*
X31445880Y-67793725D01*
X29389605Y-69850000D01*
X29030395Y-69850000D01*
X26974120Y-67793725D01*
X26551436Y-68075421D01*
X26185000Y-68961262D01*
X26185000Y-67614120D01*
X27153725Y-67614120D01*
X29210000Y-69670395D01*
X31266275Y-67614120D01*
X31254033Y-67595750D01*
X35643820Y-67595750D01*
X35643820Y-68089090D01*
X35740493Y-68322479D01*
X35919122Y-68501107D01*
X36152511Y-68597780D01*
X36645850Y-68597780D01*
X36804600Y-68439030D01*
X36804600Y-67437000D01*
X37058600Y-67437000D01*
X37058600Y-68439030D01*
X37217350Y-68597780D01*
X37710689Y-68597780D01*
X37944078Y-68501107D01*
X38122707Y-68322479D01*
X38219380Y-68089090D01*
X38219380Y-67595750D01*
X38188661Y-67565031D01*
X38892257Y-67565031D01*
X39087897Y-68038516D01*
X39449839Y-68401090D01*
X39922981Y-68597556D01*
X40435291Y-68598003D01*
X40908776Y-68402363D01*
X41188365Y-68123261D01*
X42236996Y-69171892D01*
X42483558Y-69336639D01*
X42774397Y-69394491D01*
X44855509Y-69394491D01*
X45146348Y-69336639D01*
X45392910Y-69171892D01*
X45967207Y-68597595D01*
X46434771Y-68598003D01*
X46908256Y-68402363D01*
X47270830Y-68040421D01*
X47455473Y-67595750D01*
X48140620Y-67595750D01*
X48140620Y-68089090D01*
X48237293Y-68322479D01*
X48415922Y-68501107D01*
X48649311Y-68597780D01*
X49142650Y-68597780D01*
X49301400Y-68439030D01*
X49301400Y-67437000D01*
X49555400Y-67437000D01*
X49555400Y-68439030D01*
X49714150Y-68597780D01*
X50207489Y-68597780D01*
X50440878Y-68501107D01*
X50619507Y-68322479D01*
X50716180Y-68089090D01*
X50716180Y-67595750D01*
X50883820Y-67595750D01*
X50883820Y-68089090D01*
X50980493Y-68322479D01*
X51159122Y-68501107D01*
X51392511Y-68597780D01*
X51885850Y-68597780D01*
X52044600Y-68439030D01*
X52044600Y-67437000D01*
X52298600Y-67437000D01*
X52298600Y-68439030D01*
X52457350Y-68597780D01*
X52950689Y-68597780D01*
X53184078Y-68501107D01*
X53362707Y-68322479D01*
X53459380Y-68089090D01*
X53459380Y-67595750D01*
X53300630Y-67437000D01*
X52298600Y-67437000D01*
X52044600Y-67437000D01*
X51042570Y-67437000D01*
X50883820Y-67595750D01*
X50716180Y-67595750D01*
X50557430Y-67437000D01*
X49555400Y-67437000D01*
X49301400Y-67437000D01*
X48299370Y-67437000D01*
X48140620Y-67595750D01*
X47455473Y-67595750D01*
X47467296Y-67567279D01*
X47467743Y-67054969D01*
X47272103Y-66581484D01*
X47221618Y-66530910D01*
X48140620Y-66530910D01*
X48140620Y-67024250D01*
X48299370Y-67183000D01*
X49301400Y-67183000D01*
X49301400Y-66180970D01*
X49555400Y-66180970D01*
X49555400Y-67183000D01*
X50557430Y-67183000D01*
X50716180Y-67024250D01*
X50716180Y-66530910D01*
X50883820Y-66530910D01*
X50883820Y-67024250D01*
X51042570Y-67183000D01*
X52044600Y-67183000D01*
X52044600Y-66180970D01*
X52298600Y-66180970D01*
X52298600Y-67183000D01*
X53300630Y-67183000D01*
X53459380Y-67024250D01*
X53459380Y-66530910D01*
X53362707Y-66297521D01*
X53184078Y-66118893D01*
X52950689Y-66022220D01*
X52457350Y-66022220D01*
X52298600Y-66180970D01*
X52044600Y-66180970D01*
X51885850Y-66022220D01*
X51392511Y-66022220D01*
X51159122Y-66118893D01*
X50980493Y-66297521D01*
X50883820Y-66530910D01*
X50716180Y-66530910D01*
X50619507Y-66297521D01*
X50440878Y-66118893D01*
X50207489Y-66022220D01*
X49714150Y-66022220D01*
X49555400Y-66180970D01*
X49301400Y-66180970D01*
X49142650Y-66022220D01*
X48649311Y-66022220D01*
X48415922Y-66118893D01*
X48237293Y-66297521D01*
X48140620Y-66530910D01*
X47221618Y-66530910D01*
X46910161Y-66218910D01*
X46437019Y-66022444D01*
X45924709Y-66021997D01*
X45451224Y-66217637D01*
X45088650Y-66579579D01*
X44892184Y-67052721D01*
X44891773Y-67523425D01*
X44540707Y-67874491D01*
X44339990Y-67874491D01*
X44467556Y-67567279D01*
X44468003Y-67054969D01*
X44272363Y-66581484D01*
X43940000Y-66248541D01*
X43940000Y-61847000D01*
X46427537Y-61847000D01*
X46459673Y-61879192D01*
X46803201Y-62021838D01*
X47175167Y-62022162D01*
X47518943Y-61880117D01*
X47782192Y-61617327D01*
X47924838Y-61273799D01*
X47925162Y-60901833D01*
X47783117Y-60558057D01*
X47520327Y-60294808D01*
X47176799Y-60152162D01*
X46804833Y-60151838D01*
X46461057Y-60293883D01*
X46427882Y-60327000D01*
X43586494Y-60327000D01*
X43295654Y-60384852D01*
X43049093Y-60549599D01*
X42642599Y-60956093D01*
X42477852Y-61202655D01*
X42420000Y-61493494D01*
X42420000Y-66249066D01*
X42088910Y-66579579D01*
X42032046Y-66716523D01*
X42032046Y-59239412D01*
X42067192Y-59204327D01*
X42209838Y-58860799D01*
X42209961Y-58719046D01*
X48060349Y-58719046D01*
X48289753Y-59274246D01*
X48714160Y-59699394D01*
X49268959Y-59929767D01*
X49869686Y-59930291D01*
X50424886Y-59700887D01*
X50850034Y-59276480D01*
X51080407Y-58721681D01*
X51080931Y-58120954D01*
X50851527Y-57565754D01*
X50427120Y-57140606D01*
X49872321Y-56910233D01*
X49271594Y-56909709D01*
X48716394Y-57139113D01*
X48291246Y-57563520D01*
X48060873Y-58118319D01*
X48060349Y-58719046D01*
X42209961Y-58719046D01*
X42210162Y-58488833D01*
X42068117Y-58145057D01*
X41805327Y-57881808D01*
X41461799Y-57739162D01*
X41089833Y-57738838D01*
X40746057Y-57880883D01*
X40482808Y-58143673D01*
X40340162Y-58487201D01*
X40339838Y-58859167D01*
X40481883Y-59202943D01*
X40512046Y-59233159D01*
X40512046Y-66053382D01*
X40437539Y-66022444D01*
X39925229Y-66021997D01*
X39451744Y-66217637D01*
X39089170Y-66579579D01*
X38892704Y-67052721D01*
X38892257Y-67565031D01*
X38188661Y-67565031D01*
X38060630Y-67437000D01*
X37058600Y-67437000D01*
X36804600Y-67437000D01*
X35802570Y-67437000D01*
X35643820Y-67595750D01*
X31254033Y-67595750D01*
X30984579Y-67191436D01*
X29832108Y-66714706D01*
X28584928Y-66715295D01*
X27435421Y-67191436D01*
X27153725Y-67614120D01*
X26185000Y-67614120D01*
X26185000Y-66530910D01*
X35643820Y-66530910D01*
X35643820Y-67024250D01*
X35802570Y-67183000D01*
X36804600Y-67183000D01*
X36804600Y-66180970D01*
X37058600Y-66180970D01*
X37058600Y-67183000D01*
X38060630Y-67183000D01*
X38219380Y-67024250D01*
X38219380Y-66530910D01*
X38122707Y-66297521D01*
X37944078Y-66118893D01*
X37710689Y-66022220D01*
X37217350Y-66022220D01*
X37058600Y-66180970D01*
X36804600Y-66180970D01*
X36645850Y-66022220D01*
X36152511Y-66022220D01*
X35919122Y-66118893D01*
X35740493Y-66297521D01*
X35643820Y-66530910D01*
X26185000Y-66530910D01*
X26185000Y-62858776D01*
X27304450Y-62858776D01*
X27786796Y-64026143D01*
X28679159Y-64920065D01*
X29845683Y-65404448D01*
X31108776Y-65405550D01*
X32276143Y-64923204D01*
X33170065Y-64030841D01*
X33654448Y-62864317D01*
X33655550Y-61601224D01*
X33173204Y-60433857D01*
X32280841Y-59539935D01*
X31114317Y-59055552D01*
X29851224Y-59054450D01*
X28683857Y-59536796D01*
X27789935Y-60429159D01*
X27305552Y-61595683D01*
X27304450Y-62858776D01*
X26185000Y-62858776D01*
X26185000Y-55241094D01*
X27721628Y-56777722D01*
X27968190Y-56942469D01*
X28259029Y-57000321D01*
X32532679Y-57000321D01*
X32823518Y-56942469D01*
X33070080Y-56777722D01*
X34778769Y-55069033D01*
X44218437Y-55069033D01*
X44218131Y-55420177D01*
G36*
X30673748Y-55251178D02*
X30659605Y-55265320D01*
X30673748Y-55279463D01*
X30494143Y-55459068D01*
X30480000Y-55444925D01*
X30465858Y-55459068D01*
X30286253Y-55279463D01*
X30300395Y-55265320D01*
X30286252Y-55251178D01*
X30465858Y-55071573D01*
X30480000Y-55085715D01*
X30494143Y-55071573D01*
X30673748Y-55251178D01*
X30673748Y-55251178D01*
G37*
X30673748Y-55251178D02*
X30659605Y-55265320D01*
X30673748Y-55279463D01*
X30494143Y-55459068D01*
X30480000Y-55444925D01*
X30465858Y-55459068D01*
X30286253Y-55279463D01*
X30300395Y-55265320D01*
X30286252Y-55251178D01*
X30465858Y-55071573D01*
X30480000Y-55085715D01*
X30494143Y-55071573D01*
X30673748Y-55251178D01*
G36*
X59909148Y-54085318D02*
X59895005Y-54099460D01*
X59909148Y-54113602D01*
X59729542Y-54293208D01*
X59715400Y-54279065D01*
X59701258Y-54293208D01*
X59521652Y-54113602D01*
X59535795Y-54099460D01*
X59521653Y-54085318D01*
X59701258Y-53905713D01*
X59715400Y-53919855D01*
X59729543Y-53905713D01*
X59909148Y-54085318D01*
X59909148Y-54085318D01*
G37*
X59909148Y-54085318D02*
X59895005Y-54099460D01*
X59909148Y-54113602D01*
X59729542Y-54293208D01*
X59715400Y-54279065D01*
X59701258Y-54293208D01*
X59521652Y-54113602D01*
X59535795Y-54099460D01*
X59521653Y-54085318D01*
X59701258Y-53905713D01*
X59715400Y-53919855D01*
X59729543Y-53905713D01*
X59909148Y-54085318D01*
G36*
X29182378Y-50502238D02*
X29211917Y-51012588D01*
X29350389Y-51346889D01*
X29580984Y-51402570D01*
X30300395Y-50683160D01*
X30286252Y-50669018D01*
X30465858Y-50489413D01*
X30480000Y-50503555D01*
X30494143Y-50489413D01*
X30673748Y-50669018D01*
X30659605Y-50683160D01*
X31379016Y-51402570D01*
X31609611Y-51346889D01*
X31642297Y-51252959D01*
X31798854Y-51357567D01*
X31709823Y-51571976D01*
X31709377Y-52083181D01*
X31904595Y-52555643D01*
X31972704Y-52623872D01*
X31759227Y-52837349D01*
X31748083Y-52644812D01*
X31609611Y-52310511D01*
X31379016Y-52254830D01*
X30659605Y-52974240D01*
X30673748Y-52988382D01*
X30494143Y-53167988D01*
X30480000Y-53153845D01*
X30465858Y-53167988D01*
X30286252Y-52988382D01*
X30300395Y-52974240D01*
X29580984Y-52254830D01*
X29350389Y-52310511D01*
X29182378Y-52793318D01*
X29211917Y-53303668D01*
X29235159Y-53359780D01*
X29019866Y-53359780D01*
X28691705Y-53031045D01*
X28555150Y-52974343D01*
X28689803Y-52918705D01*
X29051595Y-52557545D01*
X29247637Y-52085424D01*
X29248076Y-51582176D01*
X29760590Y-51582176D01*
X29816271Y-51812771D01*
X29858068Y-51827316D01*
X29816271Y-51844629D01*
X29760590Y-52075224D01*
X30480000Y-52794635D01*
X31199410Y-52075224D01*
X31143729Y-51844629D01*
X31101932Y-51830084D01*
X31143729Y-51812771D01*
X31199410Y-51582176D01*
X30480000Y-50862765D01*
X29760590Y-51582176D01*
X29248076Y-51582176D01*
X29248083Y-51574219D01*
X29052865Y-51101757D01*
X28691705Y-50739965D01*
X28559483Y-50685062D01*
X28692343Y-50630165D01*
X29022925Y-50300160D01*
X29252699Y-50300160D01*
X29182378Y-50502238D01*
X29182378Y-50502238D01*
G37*
X29182378Y-50502238D02*
X29211917Y-51012588D01*
X29350389Y-51346889D01*
X29580984Y-51402570D01*
X30300395Y-50683160D01*
X30286252Y-50669018D01*
X30465858Y-50489413D01*
X30480000Y-50503555D01*
X30494143Y-50489413D01*
X30673748Y-50669018D01*
X30659605Y-50683160D01*
X31379016Y-51402570D01*
X31609611Y-51346889D01*
X31642297Y-51252959D01*
X31798854Y-51357567D01*
X31709823Y-51571976D01*
X31709377Y-52083181D01*
X31904595Y-52555643D01*
X31972704Y-52623872D01*
X31759227Y-52837349D01*
X31748083Y-52644812D01*
X31609611Y-52310511D01*
X31379016Y-52254830D01*
X30659605Y-52974240D01*
X30673748Y-52988382D01*
X30494143Y-53167988D01*
X30480000Y-53153845D01*
X30465858Y-53167988D01*
X30286252Y-52988382D01*
X30300395Y-52974240D01*
X29580984Y-52254830D01*
X29350389Y-52310511D01*
X29182378Y-52793318D01*
X29211917Y-53303668D01*
X29235159Y-53359780D01*
X29019866Y-53359780D01*
X28691705Y-53031045D01*
X28555150Y-52974343D01*
X28689803Y-52918705D01*
X29051595Y-52557545D01*
X29247637Y-52085424D01*
X29248076Y-51582176D01*
X29760590Y-51582176D01*
X29816271Y-51812771D01*
X29858068Y-51827316D01*
X29816271Y-51844629D01*
X29760590Y-52075224D01*
X30480000Y-52794635D01*
X31199410Y-52075224D01*
X31143729Y-51844629D01*
X31101932Y-51830084D01*
X31143729Y-51812771D01*
X31199410Y-51582176D01*
X30480000Y-50862765D01*
X29760590Y-51582176D01*
X29248076Y-51582176D01*
X29248083Y-51574219D01*
X29052865Y-51101757D01*
X28691705Y-50739965D01*
X28559483Y-50685062D01*
X28692343Y-50630165D01*
X29022925Y-50300160D01*
X29252699Y-50300160D01*
X29182378Y-50502238D01*
G36*
X62423748Y-52942318D02*
X62409605Y-52956460D01*
X62423748Y-52970602D01*
X62244142Y-53150208D01*
X62230000Y-53136065D01*
X62215858Y-53150208D01*
X62036253Y-52970603D01*
X62050395Y-52956460D01*
X62036253Y-52942318D01*
X62215858Y-52762713D01*
X62230000Y-52776855D01*
X62244143Y-52762713D01*
X62423748Y-52942318D01*
X62423748Y-52942318D01*
G37*
X62423748Y-52942318D02*
X62409605Y-52956460D01*
X62423748Y-52970602D01*
X62244142Y-53150208D01*
X62230000Y-53136065D01*
X62215858Y-53150208D01*
X62036253Y-52970603D01*
X62050395Y-52956460D01*
X62036253Y-52942318D01*
X62215858Y-52762713D01*
X62230000Y-52776855D01*
X62244143Y-52762713D01*
X62423748Y-52942318D01*
G36*
X64018295Y-48320035D02*
X64150517Y-48374938D01*
X64017657Y-48429835D01*
X63655865Y-48790995D01*
X63600019Y-48925487D01*
X63514784Y-48982439D01*
X63077958Y-49419265D01*
X62967205Y-49585019D01*
X62958845Y-49576645D01*
X62841700Y-49528002D01*
X62893729Y-49506451D01*
X62949410Y-49275856D01*
X62230000Y-48556445D01*
X61510590Y-49275856D01*
X61566271Y-49506451D01*
X61622505Y-49526020D01*
X61503057Y-49575375D01*
X61141265Y-49936535D01*
X60993485Y-50292429D01*
X60503935Y-50781979D01*
X60444245Y-50722185D01*
X60304624Y-50664209D01*
X60442343Y-50607305D01*
X60804135Y-50246145D01*
X61000177Y-49774024D01*
X61000623Y-49262819D01*
X60807181Y-48794656D01*
X60813939Y-48790141D01*
X60958410Y-48645670D01*
X60961917Y-48706268D01*
X61100389Y-49040569D01*
X61330984Y-49096250D01*
X62050395Y-48376840D01*
X62036252Y-48362698D01*
X62215858Y-48183093D01*
X62230000Y-48197235D01*
X62244143Y-48183093D01*
X62423748Y-48362698D01*
X62409605Y-48376840D01*
X63129016Y-49096250D01*
X63359611Y-49040569D01*
X63527622Y-48557762D01*
X63498083Y-48047412D01*
X63474841Y-47991300D01*
X63690134Y-47991300D01*
X64018295Y-48320035D01*
X64018295Y-48320035D01*
G37*
X64018295Y-48320035D02*
X64150517Y-48374938D01*
X64017657Y-48429835D01*
X63655865Y-48790995D01*
X63600019Y-48925487D01*
X63514784Y-48982439D01*
X63077958Y-49419265D01*
X62967205Y-49585019D01*
X62958845Y-49576645D01*
X62841700Y-49528002D01*
X62893729Y-49506451D01*
X62949410Y-49275856D01*
X62230000Y-48556445D01*
X61510590Y-49275856D01*
X61566271Y-49506451D01*
X61622505Y-49526020D01*
X61503057Y-49575375D01*
X61141265Y-49936535D01*
X60993485Y-50292429D01*
X60503935Y-50781979D01*
X60444245Y-50722185D01*
X60304624Y-50664209D01*
X60442343Y-50607305D01*
X60804135Y-50246145D01*
X61000177Y-49774024D01*
X61000623Y-49262819D01*
X60807181Y-48794656D01*
X60813939Y-48790141D01*
X60958410Y-48645670D01*
X60961917Y-48706268D01*
X61100389Y-49040569D01*
X61330984Y-49096250D01*
X62050395Y-48376840D01*
X62036252Y-48362698D01*
X62215858Y-48183093D01*
X62230000Y-48197235D01*
X62244143Y-48183093D01*
X62423748Y-48362698D01*
X62409605Y-48376840D01*
X63129016Y-49096250D01*
X63359611Y-49040569D01*
X63527622Y-48557762D01*
X63498083Y-48047412D01*
X63474841Y-47991300D01*
X63690134Y-47991300D01*
X64018295Y-48320035D01*
G36*
X61725421Y-26551436D02*
X61443725Y-26974120D01*
X63500000Y-29030395D01*
X63514143Y-29016253D01*
X63693748Y-29195858D01*
X63679605Y-29210000D01*
X65735880Y-31266275D01*
X66158564Y-30984579D01*
X66525000Y-30098738D01*
X66525000Y-35868263D01*
X63001972Y-32345235D01*
X64125072Y-32344705D01*
X65274579Y-31868564D01*
X65556275Y-31445880D01*
X63500000Y-29389605D01*
X63485858Y-29403748D01*
X63306253Y-29224143D01*
X63320395Y-29210000D01*
X61264120Y-27153725D01*
X60841436Y-27435421D01*
X60364706Y-28587892D01*
X60365235Y-29708498D01*
X59448391Y-28791654D01*
X59201829Y-28626907D01*
X58910990Y-28569055D01*
X53220945Y-28569055D01*
X52930105Y-28626907D01*
X52683544Y-28791654D01*
X51012793Y-30462405D01*
X50544969Y-30461997D01*
X50071484Y-30657637D01*
X49708910Y-31019579D01*
X49512444Y-31492721D01*
X49511997Y-32005031D01*
X49707637Y-32478516D01*
X50069579Y-32841090D01*
X50542721Y-33037556D01*
X51055031Y-33038003D01*
X51528516Y-32842363D01*
X51891090Y-32480421D01*
X52087556Y-32007279D01*
X52087557Y-32005031D01*
X52511737Y-32005031D01*
X52707377Y-32478516D01*
X53069319Y-32841090D01*
X53542461Y-33037556D01*
X54054771Y-33038003D01*
X54528256Y-32842363D01*
X54890830Y-32480421D01*
X55075473Y-32035750D01*
X55760620Y-32035750D01*
X55760620Y-32529090D01*
X55857293Y-32762479D01*
X56035922Y-32941107D01*
X56269311Y-33037780D01*
X56762650Y-33037780D01*
X56921400Y-32879030D01*
X56921400Y-31877000D01*
X57175400Y-31877000D01*
X57175400Y-32879030D01*
X57334150Y-33037780D01*
X57827489Y-33037780D01*
X58060878Y-32941107D01*
X58239507Y-32762479D01*
X58336180Y-32529090D01*
X58336180Y-32035750D01*
X58177430Y-31877000D01*
X57175400Y-31877000D01*
X56921400Y-31877000D01*
X55919370Y-31877000D01*
X55760620Y-32035750D01*
X55075473Y-32035750D01*
X55087296Y-32007279D01*
X55087743Y-31494969D01*
X54892103Y-31021484D01*
X54841618Y-30970910D01*
X55760620Y-30970910D01*
X55760620Y-31464250D01*
X55919370Y-31623000D01*
X56921400Y-31623000D01*
X56921400Y-30620970D01*
X57175400Y-30620970D01*
X57175400Y-31623000D01*
X58177430Y-31623000D01*
X58336180Y-31464250D01*
X58336180Y-30970910D01*
X58239507Y-30737521D01*
X58060878Y-30558893D01*
X57827489Y-30462220D01*
X57334150Y-30462220D01*
X57175400Y-30620970D01*
X56921400Y-30620970D01*
X56762650Y-30462220D01*
X56269311Y-30462220D01*
X56035922Y-30558893D01*
X55857293Y-30737521D01*
X55760620Y-30970910D01*
X54841618Y-30970910D01*
X54530161Y-30658910D01*
X54057019Y-30462444D01*
X53544709Y-30461997D01*
X53071224Y-30657637D01*
X52708650Y-31019579D01*
X52512184Y-31492721D01*
X52511737Y-32005031D01*
X52087557Y-32005031D01*
X52087966Y-31536836D01*
X53535747Y-30089055D01*
X58596188Y-30089055D01*
X62162072Y-33654939D01*
X61601224Y-33654450D01*
X60433857Y-34136796D01*
X59539935Y-35029159D01*
X59055552Y-36195683D01*
X59054450Y-37458776D01*
X59536796Y-38626143D01*
X60429159Y-39520065D01*
X61595683Y-40004448D01*
X62858776Y-40005550D01*
X64026143Y-39523204D01*
X64920065Y-38630841D01*
X65404448Y-37464317D01*
X65404942Y-36897809D01*
X65534000Y-37026867D01*
X65534000Y-43909602D01*
X65475985Y-43851485D01*
X65003864Y-43655443D01*
X64492659Y-43654997D01*
X64020197Y-43850215D01*
X63658405Y-44211375D01*
X63462363Y-44683496D01*
X63461917Y-45194701D01*
X63657135Y-45667163D01*
X64018295Y-46028955D01*
X64154850Y-46085657D01*
X64020197Y-46141295D01*
X63689615Y-46471300D01*
X63456417Y-46471300D01*
X63527622Y-46266682D01*
X63498083Y-45756332D01*
X63359611Y-45422031D01*
X63129016Y-45366350D01*
X62409605Y-46085760D01*
X62423748Y-46099902D01*
X62244143Y-46279508D01*
X62230000Y-46265365D01*
X62215858Y-46279508D01*
X62036252Y-46099902D01*
X62050395Y-46085760D01*
X61330984Y-45366350D01*
X61100389Y-45422031D01*
X60932378Y-45904838D01*
X60961917Y-46415188D01*
X61008971Y-46528787D01*
X61007138Y-46529152D01*
X60857079Y-46629418D01*
X60805405Y-46504357D01*
X60444245Y-46142565D01*
X60307690Y-46085863D01*
X60442343Y-46030225D01*
X60804135Y-45669065D01*
X61000177Y-45196944D01*
X61000616Y-44693696D01*
X61510590Y-44693696D01*
X61566271Y-44924291D01*
X61608068Y-44938836D01*
X61566271Y-44956149D01*
X61510590Y-45186744D01*
X62230000Y-45906155D01*
X62949410Y-45186744D01*
X62893729Y-44956149D01*
X62851932Y-44941604D01*
X62893729Y-44924291D01*
X62949410Y-44693696D01*
X62230000Y-43974285D01*
X61510590Y-44693696D01*
X61000616Y-44693696D01*
X61000623Y-44685739D01*
X60805405Y-44213277D01*
X60444245Y-43851485D01*
X59972124Y-43655443D01*
X59460919Y-43654997D01*
X58988457Y-43850215D01*
X58626665Y-44211375D01*
X58430623Y-44683496D01*
X58430177Y-45194701D01*
X58625395Y-45667163D01*
X58986555Y-46028955D01*
X59123110Y-46085657D01*
X58988457Y-46141295D01*
X58626665Y-46502455D01*
X58430623Y-46974576D01*
X58430177Y-47485781D01*
X58433052Y-47492740D01*
X56012515Y-47492740D01*
X56079127Y-47332321D01*
X56079651Y-46731594D01*
X55850247Y-46176394D01*
X55425840Y-45751246D01*
X54871041Y-45520873D01*
X54270314Y-45520349D01*
X53715114Y-45749753D01*
X53289966Y-46174160D01*
X53059593Y-46728959D01*
X53059069Y-47329686D01*
X53126442Y-47492740D01*
X52370116Y-47492740D01*
X52370162Y-47439833D01*
X52228117Y-47096057D01*
X51965327Y-46832808D01*
X51621799Y-46690162D01*
X51574923Y-46690121D01*
X51083401Y-46198599D01*
X50836839Y-46033852D01*
X50546000Y-45976000D01*
X46761763Y-45976000D01*
X44224169Y-43438406D01*
X53059069Y-43438406D01*
X53288473Y-43993606D01*
X53712880Y-44418754D01*
X54267679Y-44649127D01*
X54868406Y-44649651D01*
X55423606Y-44420247D01*
X55848754Y-43995840D01*
X56007408Y-43613758D01*
X60932378Y-43613758D01*
X60961917Y-44124108D01*
X61100389Y-44458409D01*
X61330984Y-44514090D01*
X62050395Y-43794680D01*
X62409605Y-43794680D01*
X63129016Y-44514090D01*
X63359611Y-44458409D01*
X63527622Y-43975602D01*
X63498083Y-43465252D01*
X63359611Y-43130951D01*
X63129016Y-43075270D01*
X62409605Y-43794680D01*
X62050395Y-43794680D01*
X61330984Y-43075270D01*
X61100389Y-43130951D01*
X60932378Y-43613758D01*
X56007408Y-43613758D01*
X56079127Y-43441041D01*
X56079602Y-42895664D01*
X61510590Y-42895664D01*
X62230000Y-43615075D01*
X62949410Y-42895664D01*
X62893729Y-42665069D01*
X62410922Y-42497058D01*
X61900572Y-42526597D01*
X61566271Y-42665069D01*
X61510590Y-42895664D01*
X56079602Y-42895664D01*
X56079651Y-42840314D01*
X55850247Y-42285114D01*
X55425840Y-41859966D01*
X54871041Y-41629593D01*
X54270314Y-41629069D01*
X53715114Y-41858473D01*
X53289966Y-42282880D01*
X53059593Y-42837679D01*
X53059069Y-43438406D01*
X44224169Y-43438406D01*
X41724809Y-40939046D01*
X48060349Y-40939046D01*
X48289753Y-41494246D01*
X48714160Y-41919394D01*
X49268959Y-42149767D01*
X49869686Y-42150291D01*
X50424886Y-41920887D01*
X50850034Y-41496480D01*
X51080407Y-40941681D01*
X51080931Y-40340954D01*
X50851527Y-39785754D01*
X50427120Y-39360606D01*
X49872321Y-39130233D01*
X49271594Y-39129709D01*
X48716394Y-39359113D01*
X48291246Y-39783520D01*
X48060873Y-40338319D01*
X48060349Y-40939046D01*
X41724809Y-40939046D01*
X40598362Y-39812599D01*
X40494395Y-39743131D01*
X42483864Y-39743131D01*
X42483869Y-39743132D01*
X42797670Y-39680712D01*
X43063697Y-39502959D01*
X43432184Y-39134471D01*
X43708943Y-39020117D01*
X43972192Y-38757327D01*
X44104088Y-38439686D01*
X53059069Y-38439686D01*
X53288473Y-38994886D01*
X53712880Y-39420034D01*
X54267679Y-39650407D01*
X54868406Y-39650931D01*
X55423606Y-39421527D01*
X55848754Y-38997120D01*
X56079127Y-38442321D01*
X56079651Y-37841594D01*
X55850247Y-37286394D01*
X55425840Y-36861246D01*
X54871041Y-36630873D01*
X54270314Y-36630349D01*
X53715114Y-36859753D01*
X53289966Y-37284160D01*
X53059593Y-37838959D01*
X53059069Y-38439686D01*
X44104088Y-38439686D01*
X44114838Y-38413799D01*
X44115162Y-38041833D01*
X43973117Y-37698057D01*
X43710327Y-37434808D01*
X43366799Y-37292162D01*
X42994833Y-37291838D01*
X42651057Y-37433883D01*
X42387808Y-37696673D01*
X42272159Y-37975186D01*
X42144213Y-38103131D01*
X39389786Y-38103131D01*
X39134471Y-37847815D01*
X39020117Y-37571057D01*
X38757327Y-37307808D01*
X38413799Y-37165162D01*
X38041833Y-37164838D01*
X37971000Y-37194106D01*
X37971000Y-33413802D01*
X38347207Y-33037595D01*
X38814771Y-33038003D01*
X39288256Y-32842363D01*
X39650830Y-32480421D01*
X39835473Y-32035750D01*
X40520620Y-32035750D01*
X40520620Y-32529090D01*
X40617293Y-32762479D01*
X40795922Y-32941107D01*
X41029311Y-33037780D01*
X41522650Y-33037780D01*
X41681400Y-32879030D01*
X41681400Y-31877000D01*
X41935400Y-31877000D01*
X41935400Y-32879030D01*
X42094150Y-33037780D01*
X42587489Y-33037780D01*
X42820878Y-32941107D01*
X42999507Y-32762479D01*
X43096180Y-32529090D01*
X43096180Y-32035750D01*
X43263820Y-32035750D01*
X43263820Y-32529090D01*
X43360493Y-32762479D01*
X43539122Y-32941107D01*
X43772511Y-33037780D01*
X44265850Y-33037780D01*
X44424600Y-32879030D01*
X44424600Y-31877000D01*
X44678600Y-31877000D01*
X44678600Y-32879030D01*
X44837350Y-33037780D01*
X45330689Y-33037780D01*
X45564078Y-32941107D01*
X45742707Y-32762479D01*
X45839380Y-32529090D01*
X45839380Y-32035750D01*
X45808661Y-32005031D01*
X46512257Y-32005031D01*
X46707897Y-32478516D01*
X47069839Y-32841090D01*
X47542981Y-33037556D01*
X48055291Y-33038003D01*
X48528776Y-32842363D01*
X48891350Y-32480421D01*
X49087816Y-32007279D01*
X49088263Y-31494969D01*
X48892623Y-31021484D01*
X48530681Y-30658910D01*
X48057539Y-30462444D01*
X47545229Y-30461997D01*
X47071744Y-30657637D01*
X46709170Y-31019579D01*
X46512704Y-31492721D01*
X46512257Y-32005031D01*
X45808661Y-32005031D01*
X45680630Y-31877000D01*
X44678600Y-31877000D01*
X44424600Y-31877000D01*
X43422570Y-31877000D01*
X43263820Y-32035750D01*
X43096180Y-32035750D01*
X42937430Y-31877000D01*
X41935400Y-31877000D01*
X41681400Y-31877000D01*
X40679370Y-31877000D01*
X40520620Y-32035750D01*
X39835473Y-32035750D01*
X39847296Y-32007279D01*
X39847743Y-31494969D01*
X39652103Y-31021484D01*
X39601618Y-30970910D01*
X40520620Y-30970910D01*
X40520620Y-31464250D01*
X40679370Y-31623000D01*
X41681400Y-31623000D01*
X41681400Y-30620970D01*
X41935400Y-30620970D01*
X41935400Y-31623000D01*
X42937430Y-31623000D01*
X43096180Y-31464250D01*
X43096180Y-30970910D01*
X43263820Y-30970910D01*
X43263820Y-31464250D01*
X43422570Y-31623000D01*
X44424600Y-31623000D01*
X44424600Y-30620970D01*
X44678600Y-30620970D01*
X44678600Y-31623000D01*
X45680630Y-31623000D01*
X45839380Y-31464250D01*
X45839380Y-30970910D01*
X45742707Y-30737521D01*
X45564078Y-30558893D01*
X45330689Y-30462220D01*
X44837350Y-30462220D01*
X44678600Y-30620970D01*
X44424600Y-30620970D01*
X44265850Y-30462220D01*
X43772511Y-30462220D01*
X43539122Y-30558893D01*
X43360493Y-30737521D01*
X43263820Y-30970910D01*
X43096180Y-30970910D01*
X42999507Y-30737521D01*
X42820878Y-30558893D01*
X42587489Y-30462220D01*
X42094150Y-30462220D01*
X41935400Y-30620970D01*
X41681400Y-30620970D01*
X41522650Y-30462220D01*
X41029311Y-30462220D01*
X40795922Y-30558893D01*
X40617293Y-30737521D01*
X40520620Y-30970910D01*
X39601618Y-30970910D01*
X39290161Y-30658910D01*
X38817019Y-30462444D01*
X38304709Y-30461997D01*
X37831224Y-30657637D01*
X37468650Y-31019579D01*
X37272184Y-31492721D01*
X37271773Y-31963425D01*
X36673599Y-32561599D01*
X36508852Y-32808161D01*
X36451000Y-33099000D01*
X36451000Y-39116000D01*
X36508852Y-39406839D01*
X36673599Y-39653401D01*
X38363901Y-41343703D01*
X38363901Y-43473636D01*
X38331709Y-43505772D01*
X38189063Y-43849300D01*
X38188739Y-44221266D01*
X38330784Y-44565042D01*
X38593574Y-44828291D01*
X38937102Y-44970937D01*
X39309068Y-44971261D01*
X39652844Y-44829216D01*
X39916093Y-44566426D01*
X40058739Y-44222898D01*
X40059063Y-43850932D01*
X39917018Y-43507156D01*
X39883901Y-43473981D01*
X39883901Y-41247742D01*
X45909560Y-47273401D01*
X46156122Y-47438148D01*
X46430572Y-47492740D01*
X40713344Y-47492740D01*
X38263160Y-45042556D01*
X38263200Y-44997069D01*
X38121155Y-44653293D01*
X38088038Y-44620118D01*
X38088038Y-44101836D01*
X38030186Y-43810997D01*
X37865439Y-43564435D01*
X37182759Y-42881755D01*
X37182799Y-42836268D01*
X37040754Y-42492492D01*
X36777964Y-42229243D01*
X36434436Y-42086597D01*
X36062470Y-42086273D01*
X35718694Y-42228318D01*
X35455445Y-42491108D01*
X35312799Y-42834636D01*
X35312475Y-43206602D01*
X35454520Y-43550378D01*
X35717310Y-43813627D01*
X36060838Y-43956273D01*
X36107714Y-43956314D01*
X36568038Y-44416638D01*
X36568038Y-44619773D01*
X36535846Y-44651909D01*
X36393200Y-44995437D01*
X36392876Y-45367403D01*
X36534921Y-45711179D01*
X36797711Y-45974428D01*
X37141239Y-46117074D01*
X37188115Y-46117115D01*
X39861141Y-48790141D01*
X40107703Y-48954888D01*
X40398542Y-49012740D01*
X48150389Y-49012740D01*
X48060873Y-49228319D01*
X48060349Y-49829046D01*
X48144933Y-50033754D01*
X36854076Y-50033754D01*
X34279418Y-47459096D01*
X34279823Y-46994599D01*
X34084605Y-46522137D01*
X33723445Y-46160345D01*
X33606300Y-46111702D01*
X33658329Y-46090151D01*
X33714010Y-45859556D01*
X32994600Y-45140145D01*
X32275190Y-45859556D01*
X32330871Y-46090151D01*
X32387105Y-46109720D01*
X32267657Y-46159075D01*
X31905865Y-46520235D01*
X31709823Y-46992356D01*
X31709377Y-47503561D01*
X31763530Y-47634620D01*
X31537006Y-47634620D01*
X31208845Y-47305885D01*
X31088638Y-47255971D01*
X31143729Y-47233151D01*
X31199410Y-47002556D01*
X30480000Y-46283145D01*
X29760590Y-47002556D01*
X29816271Y-47233151D01*
X29875842Y-47253881D01*
X29753057Y-47304615D01*
X29391265Y-47665775D01*
X29195223Y-48137896D01*
X29194777Y-48649101D01*
X29248930Y-48780160D01*
X29022406Y-48780160D01*
X28694245Y-48451425D01*
X28556424Y-48394196D01*
X28689803Y-48339085D01*
X29051595Y-47977925D01*
X29247637Y-47505804D01*
X29248083Y-46994599D01*
X29052865Y-46522137D01*
X28691705Y-46160345D01*
X28558216Y-46104916D01*
X28689803Y-46050545D01*
X28817953Y-45922618D01*
X29182378Y-45922618D01*
X29211917Y-46432968D01*
X29350389Y-46767269D01*
X29580984Y-46822950D01*
X30300395Y-46103540D01*
X30659605Y-46103540D01*
X31379016Y-46822950D01*
X31609611Y-46767269D01*
X31777622Y-46284462D01*
X31748083Y-45774112D01*
X31609611Y-45439811D01*
X31379016Y-45384130D01*
X30659605Y-46103540D01*
X30300395Y-46103540D01*
X29580984Y-45384130D01*
X29350389Y-45439811D01*
X29182378Y-45922618D01*
X28817953Y-45922618D01*
X29051595Y-45689385D01*
X29247637Y-45217264D01*
X29247648Y-45204524D01*
X29760590Y-45204524D01*
X30480000Y-45923935D01*
X31199410Y-45204524D01*
X31143729Y-44973929D01*
X30660922Y-44805918D01*
X30150572Y-44835457D01*
X29816271Y-44973929D01*
X29760590Y-45204524D01*
X29247648Y-45204524D01*
X29248018Y-44779618D01*
X31696978Y-44779618D01*
X31726517Y-45289968D01*
X31864989Y-45624269D01*
X32095584Y-45679950D01*
X32814995Y-44960540D01*
X33174205Y-44960540D01*
X33893616Y-45679950D01*
X34124211Y-45624269D01*
X34292222Y-45141462D01*
X34262683Y-44631112D01*
X34124211Y-44296811D01*
X33893616Y-44241130D01*
X33174205Y-44960540D01*
X32814995Y-44960540D01*
X32095584Y-44241130D01*
X31864989Y-44296811D01*
X31696978Y-44779618D01*
X29248018Y-44779618D01*
X29248083Y-44706059D01*
X29052865Y-44233597D01*
X28881093Y-44061524D01*
X32275190Y-44061524D01*
X32994600Y-44780935D01*
X33714010Y-44061524D01*
X33658329Y-43830929D01*
X33175522Y-43662918D01*
X32665172Y-43692457D01*
X32330871Y-43830929D01*
X32275190Y-44061524D01*
X28881093Y-44061524D01*
X28691705Y-43871805D01*
X28219584Y-43675763D01*
X27708379Y-43675317D01*
X27235917Y-43870535D01*
X26874125Y-44231695D01*
X26678083Y-44703816D01*
X26678080Y-44707797D01*
X26185000Y-45200877D01*
X26185000Y-37966776D01*
X27304450Y-37966776D01*
X27786796Y-39134143D01*
X28679159Y-40028065D01*
X29845683Y-40512448D01*
X31108776Y-40513550D01*
X32276143Y-40031204D01*
X33170065Y-39138841D01*
X33654448Y-37972317D01*
X33655550Y-36709224D01*
X33173204Y-35541857D01*
X32280841Y-34647935D01*
X31114317Y-34163552D01*
X29851224Y-34162450D01*
X28683857Y-34644796D01*
X27789935Y-35537159D01*
X27305552Y-36703683D01*
X27304450Y-37966776D01*
X26185000Y-37966776D01*
X26185000Y-32035750D01*
X28023820Y-32035750D01*
X28023820Y-32529090D01*
X28120493Y-32762479D01*
X28299122Y-32941107D01*
X28532511Y-33037780D01*
X29025850Y-33037780D01*
X29184600Y-32879030D01*
X29184600Y-31877000D01*
X29438600Y-31877000D01*
X29438600Y-32879030D01*
X29597350Y-33037780D01*
X30090689Y-33037780D01*
X30324078Y-32941107D01*
X30502707Y-32762479D01*
X30599380Y-32529090D01*
X30599380Y-32035750D01*
X30568661Y-32005031D01*
X31272257Y-32005031D01*
X31467897Y-32478516D01*
X31829839Y-32841090D01*
X32302981Y-33037556D01*
X32815291Y-33038003D01*
X33288776Y-32842363D01*
X33651350Y-32480421D01*
X33847816Y-32007279D01*
X33847817Y-32005031D01*
X34271997Y-32005031D01*
X34467637Y-32478516D01*
X34829579Y-32841090D01*
X35302721Y-33037556D01*
X35815031Y-33038003D01*
X36288516Y-32842363D01*
X36651090Y-32480421D01*
X36847556Y-32007279D01*
X36848003Y-31494969D01*
X36652363Y-31021484D01*
X36290421Y-30658910D01*
X35817279Y-30462444D01*
X35304969Y-30461997D01*
X34831484Y-30657637D01*
X34468910Y-31019579D01*
X34272444Y-31492721D01*
X34271997Y-32005031D01*
X33847817Y-32005031D01*
X33848263Y-31494969D01*
X33652623Y-31021484D01*
X33290681Y-30658910D01*
X32817539Y-30462444D01*
X32305229Y-30461997D01*
X31831744Y-30657637D01*
X31469170Y-31019579D01*
X31272704Y-31492721D01*
X31272257Y-32005031D01*
X30568661Y-32005031D01*
X30440630Y-31877000D01*
X29438600Y-31877000D01*
X29184600Y-31877000D01*
X28182570Y-31877000D01*
X28023820Y-32035750D01*
X26185000Y-32035750D01*
X26185000Y-30970910D01*
X28023820Y-30970910D01*
X28023820Y-31464250D01*
X28182570Y-31623000D01*
X29184600Y-31623000D01*
X29184600Y-30620970D01*
X29438600Y-30620970D01*
X29438600Y-31623000D01*
X30440630Y-31623000D01*
X30599380Y-31464250D01*
X30599380Y-30970910D01*
X30502707Y-30737521D01*
X30324078Y-30558893D01*
X30090689Y-30462220D01*
X29597350Y-30462220D01*
X29438600Y-30620970D01*
X29184600Y-30620970D01*
X29025850Y-30462220D01*
X28532511Y-30462220D01*
X28299122Y-30558893D01*
X28120493Y-30737521D01*
X28023820Y-30970910D01*
X26185000Y-30970910D01*
X26185000Y-29287314D01*
X26429472Y-28058270D01*
X27081877Y-27081877D01*
X28058268Y-26429472D01*
X29287318Y-26185000D01*
X62610076Y-26185000D01*
X61725421Y-26551436D01*
X61725421Y-26551436D01*
G37*
X61725421Y-26551436D02*
X61443725Y-26974120D01*
X63500000Y-29030395D01*
X63514143Y-29016253D01*
X63693748Y-29195858D01*
X63679605Y-29210000D01*
X65735880Y-31266275D01*
X66158564Y-30984579D01*
X66525000Y-30098738D01*
X66525000Y-35868263D01*
X63001972Y-32345235D01*
X64125072Y-32344705D01*
X65274579Y-31868564D01*
X65556275Y-31445880D01*
X63500000Y-29389605D01*
X63485858Y-29403748D01*
X63306253Y-29224143D01*
X63320395Y-29210000D01*
X61264120Y-27153725D01*
X60841436Y-27435421D01*
X60364706Y-28587892D01*
X60365235Y-29708498D01*
X59448391Y-28791654D01*
X59201829Y-28626907D01*
X58910990Y-28569055D01*
X53220945Y-28569055D01*
X52930105Y-28626907D01*
X52683544Y-28791654D01*
X51012793Y-30462405D01*
X50544969Y-30461997D01*
X50071484Y-30657637D01*
X49708910Y-31019579D01*
X49512444Y-31492721D01*
X49511997Y-32005031D01*
X49707637Y-32478516D01*
X50069579Y-32841090D01*
X50542721Y-33037556D01*
X51055031Y-33038003D01*
X51528516Y-32842363D01*
X51891090Y-32480421D01*
X52087556Y-32007279D01*
X52087557Y-32005031D01*
X52511737Y-32005031D01*
X52707377Y-32478516D01*
X53069319Y-32841090D01*
X53542461Y-33037556D01*
X54054771Y-33038003D01*
X54528256Y-32842363D01*
X54890830Y-32480421D01*
X55075473Y-32035750D01*
X55760620Y-32035750D01*
X55760620Y-32529090D01*
X55857293Y-32762479D01*
X56035922Y-32941107D01*
X56269311Y-33037780D01*
X56762650Y-33037780D01*
X56921400Y-32879030D01*
X56921400Y-31877000D01*
X57175400Y-31877000D01*
X57175400Y-32879030D01*
X57334150Y-33037780D01*
X57827489Y-33037780D01*
X58060878Y-32941107D01*
X58239507Y-32762479D01*
X58336180Y-32529090D01*
X58336180Y-32035750D01*
X58177430Y-31877000D01*
X57175400Y-31877000D01*
X56921400Y-31877000D01*
X55919370Y-31877000D01*
X55760620Y-32035750D01*
X55075473Y-32035750D01*
X55087296Y-32007279D01*
X55087743Y-31494969D01*
X54892103Y-31021484D01*
X54841618Y-30970910D01*
X55760620Y-30970910D01*
X55760620Y-31464250D01*
X55919370Y-31623000D01*
X56921400Y-31623000D01*
X56921400Y-30620970D01*
X57175400Y-30620970D01*
X57175400Y-31623000D01*
X58177430Y-31623000D01*
X58336180Y-31464250D01*
X58336180Y-30970910D01*
X58239507Y-30737521D01*
X58060878Y-30558893D01*
X57827489Y-30462220D01*
X57334150Y-30462220D01*
X57175400Y-30620970D01*
X56921400Y-30620970D01*
X56762650Y-30462220D01*
X56269311Y-30462220D01*
X56035922Y-30558893D01*
X55857293Y-30737521D01*
X55760620Y-30970910D01*
X54841618Y-30970910D01*
X54530161Y-30658910D01*
X54057019Y-30462444D01*
X53544709Y-30461997D01*
X53071224Y-30657637D01*
X52708650Y-31019579D01*
X52512184Y-31492721D01*
X52511737Y-32005031D01*
X52087557Y-32005031D01*
X52087966Y-31536836D01*
X53535747Y-30089055D01*
X58596188Y-30089055D01*
X62162072Y-33654939D01*
X61601224Y-33654450D01*
X60433857Y-34136796D01*
X59539935Y-35029159D01*
X59055552Y-36195683D01*
X59054450Y-37458776D01*
X59536796Y-38626143D01*
X60429159Y-39520065D01*
X61595683Y-40004448D01*
X62858776Y-40005550D01*
X64026143Y-39523204D01*
X64920065Y-38630841D01*
X65404448Y-37464317D01*
X65404942Y-36897809D01*
X65534000Y-37026867D01*
X65534000Y-43909602D01*
X65475985Y-43851485D01*
X65003864Y-43655443D01*
X64492659Y-43654997D01*
X64020197Y-43850215D01*
X63658405Y-44211375D01*
X63462363Y-44683496D01*
X63461917Y-45194701D01*
X63657135Y-45667163D01*
X64018295Y-46028955D01*
X64154850Y-46085657D01*
X64020197Y-46141295D01*
X63689615Y-46471300D01*
X63456417Y-46471300D01*
X63527622Y-46266682D01*
X63498083Y-45756332D01*
X63359611Y-45422031D01*
X63129016Y-45366350D01*
X62409605Y-46085760D01*
X62423748Y-46099902D01*
X62244143Y-46279508D01*
X62230000Y-46265365D01*
X62215858Y-46279508D01*
X62036252Y-46099902D01*
X62050395Y-46085760D01*
X61330984Y-45366350D01*
X61100389Y-45422031D01*
X60932378Y-45904838D01*
X60961917Y-46415188D01*
X61008971Y-46528787D01*
X61007138Y-46529152D01*
X60857079Y-46629418D01*
X60805405Y-46504357D01*
X60444245Y-46142565D01*
X60307690Y-46085863D01*
X60442343Y-46030225D01*
X60804135Y-45669065D01*
X61000177Y-45196944D01*
X61000616Y-44693696D01*
X61510590Y-44693696D01*
X61566271Y-44924291D01*
X61608068Y-44938836D01*
X61566271Y-44956149D01*
X61510590Y-45186744D01*
X62230000Y-45906155D01*
X62949410Y-45186744D01*
X62893729Y-44956149D01*
X62851932Y-44941604D01*
X62893729Y-44924291D01*
X62949410Y-44693696D01*
X62230000Y-43974285D01*
X61510590Y-44693696D01*
X61000616Y-44693696D01*
X61000623Y-44685739D01*
X60805405Y-44213277D01*
X60444245Y-43851485D01*
X59972124Y-43655443D01*
X59460919Y-43654997D01*
X58988457Y-43850215D01*
X58626665Y-44211375D01*
X58430623Y-44683496D01*
X58430177Y-45194701D01*
X58625395Y-45667163D01*
X58986555Y-46028955D01*
X59123110Y-46085657D01*
X58988457Y-46141295D01*
X58626665Y-46502455D01*
X58430623Y-46974576D01*
X58430177Y-47485781D01*
X58433052Y-47492740D01*
X56012515Y-47492740D01*
X56079127Y-47332321D01*
X56079651Y-46731594D01*
X55850247Y-46176394D01*
X55425840Y-45751246D01*
X54871041Y-45520873D01*
X54270314Y-45520349D01*
X53715114Y-45749753D01*
X53289966Y-46174160D01*
X53059593Y-46728959D01*
X53059069Y-47329686D01*
X53126442Y-47492740D01*
X52370116Y-47492740D01*
X52370162Y-47439833D01*
X52228117Y-47096057D01*
X51965327Y-46832808D01*
X51621799Y-46690162D01*
X51574923Y-46690121D01*
X51083401Y-46198599D01*
X50836839Y-46033852D01*
X50546000Y-45976000D01*
X46761763Y-45976000D01*
X44224169Y-43438406D01*
X53059069Y-43438406D01*
X53288473Y-43993606D01*
X53712880Y-44418754D01*
X54267679Y-44649127D01*
X54868406Y-44649651D01*
X55423606Y-44420247D01*
X55848754Y-43995840D01*
X56007408Y-43613758D01*
X60932378Y-43613758D01*
X60961917Y-44124108D01*
X61100389Y-44458409D01*
X61330984Y-44514090D01*
X62050395Y-43794680D01*
X62409605Y-43794680D01*
X63129016Y-44514090D01*
X63359611Y-44458409D01*
X63527622Y-43975602D01*
X63498083Y-43465252D01*
X63359611Y-43130951D01*
X63129016Y-43075270D01*
X62409605Y-43794680D01*
X62050395Y-43794680D01*
X61330984Y-43075270D01*
X61100389Y-43130951D01*
X60932378Y-43613758D01*
X56007408Y-43613758D01*
X56079127Y-43441041D01*
X56079602Y-42895664D01*
X61510590Y-42895664D01*
X62230000Y-43615075D01*
X62949410Y-42895664D01*
X62893729Y-42665069D01*
X62410922Y-42497058D01*
X61900572Y-42526597D01*
X61566271Y-42665069D01*
X61510590Y-42895664D01*
X56079602Y-42895664D01*
X56079651Y-42840314D01*
X55850247Y-42285114D01*
X55425840Y-41859966D01*
X54871041Y-41629593D01*
X54270314Y-41629069D01*
X53715114Y-41858473D01*
X53289966Y-42282880D01*
X53059593Y-42837679D01*
X53059069Y-43438406D01*
X44224169Y-43438406D01*
X41724809Y-40939046D01*
X48060349Y-40939046D01*
X48289753Y-41494246D01*
X48714160Y-41919394D01*
X49268959Y-42149767D01*
X49869686Y-42150291D01*
X50424886Y-41920887D01*
X50850034Y-41496480D01*
X51080407Y-40941681D01*
X51080931Y-40340954D01*
X50851527Y-39785754D01*
X50427120Y-39360606D01*
X49872321Y-39130233D01*
X49271594Y-39129709D01*
X48716394Y-39359113D01*
X48291246Y-39783520D01*
X48060873Y-40338319D01*
X48060349Y-40939046D01*
X41724809Y-40939046D01*
X40598362Y-39812599D01*
X40494395Y-39743131D01*
X42483864Y-39743131D01*
X42483869Y-39743132D01*
X42797670Y-39680712D01*
X43063697Y-39502959D01*
X43432184Y-39134471D01*
X43708943Y-39020117D01*
X43972192Y-38757327D01*
X44104088Y-38439686D01*
X53059069Y-38439686D01*
X53288473Y-38994886D01*
X53712880Y-39420034D01*
X54267679Y-39650407D01*
X54868406Y-39650931D01*
X55423606Y-39421527D01*
X55848754Y-38997120D01*
X56079127Y-38442321D01*
X56079651Y-37841594D01*
X55850247Y-37286394D01*
X55425840Y-36861246D01*
X54871041Y-36630873D01*
X54270314Y-36630349D01*
X53715114Y-36859753D01*
X53289966Y-37284160D01*
X53059593Y-37838959D01*
X53059069Y-38439686D01*
X44104088Y-38439686D01*
X44114838Y-38413799D01*
X44115162Y-38041833D01*
X43973117Y-37698057D01*
X43710327Y-37434808D01*
X43366799Y-37292162D01*
X42994833Y-37291838D01*
X42651057Y-37433883D01*
X42387808Y-37696673D01*
X42272159Y-37975186D01*
X42144213Y-38103131D01*
X39389786Y-38103131D01*
X39134471Y-37847815D01*
X39020117Y-37571057D01*
X38757327Y-37307808D01*
X38413799Y-37165162D01*
X38041833Y-37164838D01*
X37971000Y-37194106D01*
X37971000Y-33413802D01*
X38347207Y-33037595D01*
X38814771Y-33038003D01*
X39288256Y-32842363D01*
X39650830Y-32480421D01*
X39835473Y-32035750D01*
X40520620Y-32035750D01*
X40520620Y-32529090D01*
X40617293Y-32762479D01*
X40795922Y-32941107D01*
X41029311Y-33037780D01*
X41522650Y-33037780D01*
X41681400Y-32879030D01*
X41681400Y-31877000D01*
X41935400Y-31877000D01*
X41935400Y-32879030D01*
X42094150Y-33037780D01*
X42587489Y-33037780D01*
X42820878Y-32941107D01*
X42999507Y-32762479D01*
X43096180Y-32529090D01*
X43096180Y-32035750D01*
X43263820Y-32035750D01*
X43263820Y-32529090D01*
X43360493Y-32762479D01*
X43539122Y-32941107D01*
X43772511Y-33037780D01*
X44265850Y-33037780D01*
X44424600Y-32879030D01*
X44424600Y-31877000D01*
X44678600Y-31877000D01*
X44678600Y-32879030D01*
X44837350Y-33037780D01*
X45330689Y-33037780D01*
X45564078Y-32941107D01*
X45742707Y-32762479D01*
X45839380Y-32529090D01*
X45839380Y-32035750D01*
X45808661Y-32005031D01*
X46512257Y-32005031D01*
X46707897Y-32478516D01*
X47069839Y-32841090D01*
X47542981Y-33037556D01*
X48055291Y-33038003D01*
X48528776Y-32842363D01*
X48891350Y-32480421D01*
X49087816Y-32007279D01*
X49088263Y-31494969D01*
X48892623Y-31021484D01*
X48530681Y-30658910D01*
X48057539Y-30462444D01*
X47545229Y-30461997D01*
X47071744Y-30657637D01*
X46709170Y-31019579D01*
X46512704Y-31492721D01*
X46512257Y-32005031D01*
X45808661Y-32005031D01*
X45680630Y-31877000D01*
X44678600Y-31877000D01*
X44424600Y-31877000D01*
X43422570Y-31877000D01*
X43263820Y-32035750D01*
X43096180Y-32035750D01*
X42937430Y-31877000D01*
X41935400Y-31877000D01*
X41681400Y-31877000D01*
X40679370Y-31877000D01*
X40520620Y-32035750D01*
X39835473Y-32035750D01*
X39847296Y-32007279D01*
X39847743Y-31494969D01*
X39652103Y-31021484D01*
X39601618Y-30970910D01*
X40520620Y-30970910D01*
X40520620Y-31464250D01*
X40679370Y-31623000D01*
X41681400Y-31623000D01*
X41681400Y-30620970D01*
X41935400Y-30620970D01*
X41935400Y-31623000D01*
X42937430Y-31623000D01*
X43096180Y-31464250D01*
X43096180Y-30970910D01*
X43263820Y-30970910D01*
X43263820Y-31464250D01*
X43422570Y-31623000D01*
X44424600Y-31623000D01*
X44424600Y-30620970D01*
X44678600Y-30620970D01*
X44678600Y-31623000D01*
X45680630Y-31623000D01*
X45839380Y-31464250D01*
X45839380Y-30970910D01*
X45742707Y-30737521D01*
X45564078Y-30558893D01*
X45330689Y-30462220D01*
X44837350Y-30462220D01*
X44678600Y-30620970D01*
X44424600Y-30620970D01*
X44265850Y-30462220D01*
X43772511Y-30462220D01*
X43539122Y-30558893D01*
X43360493Y-30737521D01*
X43263820Y-30970910D01*
X43096180Y-30970910D01*
X42999507Y-30737521D01*
X42820878Y-30558893D01*
X42587489Y-30462220D01*
X42094150Y-30462220D01*
X41935400Y-30620970D01*
X41681400Y-30620970D01*
X41522650Y-30462220D01*
X41029311Y-30462220D01*
X40795922Y-30558893D01*
X40617293Y-30737521D01*
X40520620Y-30970910D01*
X39601618Y-30970910D01*
X39290161Y-30658910D01*
X38817019Y-30462444D01*
X38304709Y-30461997D01*
X37831224Y-30657637D01*
X37468650Y-31019579D01*
X37272184Y-31492721D01*
X37271773Y-31963425D01*
X36673599Y-32561599D01*
X36508852Y-32808161D01*
X36451000Y-33099000D01*
X36451000Y-39116000D01*
X36508852Y-39406839D01*
X36673599Y-39653401D01*
X38363901Y-41343703D01*
X38363901Y-43473636D01*
X38331709Y-43505772D01*
X38189063Y-43849300D01*
X38188739Y-44221266D01*
X38330784Y-44565042D01*
X38593574Y-44828291D01*
X38937102Y-44970937D01*
X39309068Y-44971261D01*
X39652844Y-44829216D01*
X39916093Y-44566426D01*
X40058739Y-44222898D01*
X40059063Y-43850932D01*
X39917018Y-43507156D01*
X39883901Y-43473981D01*
X39883901Y-41247742D01*
X45909560Y-47273401D01*
X46156122Y-47438148D01*
X46430572Y-47492740D01*
X40713344Y-47492740D01*
X38263160Y-45042556D01*
X38263200Y-44997069D01*
X38121155Y-44653293D01*
X38088038Y-44620118D01*
X38088038Y-44101836D01*
X38030186Y-43810997D01*
X37865439Y-43564435D01*
X37182759Y-42881755D01*
X37182799Y-42836268D01*
X37040754Y-42492492D01*
X36777964Y-42229243D01*
X36434436Y-42086597D01*
X36062470Y-42086273D01*
X35718694Y-42228318D01*
X35455445Y-42491108D01*
X35312799Y-42834636D01*
X35312475Y-43206602D01*
X35454520Y-43550378D01*
X35717310Y-43813627D01*
X36060838Y-43956273D01*
X36107714Y-43956314D01*
X36568038Y-44416638D01*
X36568038Y-44619773D01*
X36535846Y-44651909D01*
X36393200Y-44995437D01*
X36392876Y-45367403D01*
X36534921Y-45711179D01*
X36797711Y-45974428D01*
X37141239Y-46117074D01*
X37188115Y-46117115D01*
X39861141Y-48790141D01*
X40107703Y-48954888D01*
X40398542Y-49012740D01*
X48150389Y-49012740D01*
X48060873Y-49228319D01*
X48060349Y-49829046D01*
X48144933Y-50033754D01*
X36854076Y-50033754D01*
X34279418Y-47459096D01*
X34279823Y-46994599D01*
X34084605Y-46522137D01*
X33723445Y-46160345D01*
X33606300Y-46111702D01*
X33658329Y-46090151D01*
X33714010Y-45859556D01*
X32994600Y-45140145D01*
X32275190Y-45859556D01*
X32330871Y-46090151D01*
X32387105Y-46109720D01*
X32267657Y-46159075D01*
X31905865Y-46520235D01*
X31709823Y-46992356D01*
X31709377Y-47503561D01*
X31763530Y-47634620D01*
X31537006Y-47634620D01*
X31208845Y-47305885D01*
X31088638Y-47255971D01*
X31143729Y-47233151D01*
X31199410Y-47002556D01*
X30480000Y-46283145D01*
X29760590Y-47002556D01*
X29816271Y-47233151D01*
X29875842Y-47253881D01*
X29753057Y-47304615D01*
X29391265Y-47665775D01*
X29195223Y-48137896D01*
X29194777Y-48649101D01*
X29248930Y-48780160D01*
X29022406Y-48780160D01*
X28694245Y-48451425D01*
X28556424Y-48394196D01*
X28689803Y-48339085D01*
X29051595Y-47977925D01*
X29247637Y-47505804D01*
X29248083Y-46994599D01*
X29052865Y-46522137D01*
X28691705Y-46160345D01*
X28558216Y-46104916D01*
X28689803Y-46050545D01*
X28817953Y-45922618D01*
X29182378Y-45922618D01*
X29211917Y-46432968D01*
X29350389Y-46767269D01*
X29580984Y-46822950D01*
X30300395Y-46103540D01*
X30659605Y-46103540D01*
X31379016Y-46822950D01*
X31609611Y-46767269D01*
X31777622Y-46284462D01*
X31748083Y-45774112D01*
X31609611Y-45439811D01*
X31379016Y-45384130D01*
X30659605Y-46103540D01*
X30300395Y-46103540D01*
X29580984Y-45384130D01*
X29350389Y-45439811D01*
X29182378Y-45922618D01*
X28817953Y-45922618D01*
X29051595Y-45689385D01*
X29247637Y-45217264D01*
X29247648Y-45204524D01*
X29760590Y-45204524D01*
X30480000Y-45923935D01*
X31199410Y-45204524D01*
X31143729Y-44973929D01*
X30660922Y-44805918D01*
X30150572Y-44835457D01*
X29816271Y-44973929D01*
X29760590Y-45204524D01*
X29247648Y-45204524D01*
X29248018Y-44779618D01*
X31696978Y-44779618D01*
X31726517Y-45289968D01*
X31864989Y-45624269D01*
X32095584Y-45679950D01*
X32814995Y-44960540D01*
X33174205Y-44960540D01*
X33893616Y-45679950D01*
X34124211Y-45624269D01*
X34292222Y-45141462D01*
X34262683Y-44631112D01*
X34124211Y-44296811D01*
X33893616Y-44241130D01*
X33174205Y-44960540D01*
X32814995Y-44960540D01*
X32095584Y-44241130D01*
X31864989Y-44296811D01*
X31696978Y-44779618D01*
X29248018Y-44779618D01*
X29248083Y-44706059D01*
X29052865Y-44233597D01*
X28881093Y-44061524D01*
X32275190Y-44061524D01*
X32994600Y-44780935D01*
X33714010Y-44061524D01*
X33658329Y-43830929D01*
X33175522Y-43662918D01*
X32665172Y-43692457D01*
X32330871Y-43830929D01*
X32275190Y-44061524D01*
X28881093Y-44061524D01*
X28691705Y-43871805D01*
X28219584Y-43675763D01*
X27708379Y-43675317D01*
X27235917Y-43870535D01*
X26874125Y-44231695D01*
X26678083Y-44703816D01*
X26678080Y-44707797D01*
X26185000Y-45200877D01*
X26185000Y-37966776D01*
X27304450Y-37966776D01*
X27786796Y-39134143D01*
X28679159Y-40028065D01*
X29845683Y-40512448D01*
X31108776Y-40513550D01*
X32276143Y-40031204D01*
X33170065Y-39138841D01*
X33654448Y-37972317D01*
X33655550Y-36709224D01*
X33173204Y-35541857D01*
X32280841Y-34647935D01*
X31114317Y-34163552D01*
X29851224Y-34162450D01*
X28683857Y-34644796D01*
X27789935Y-35537159D01*
X27305552Y-36703683D01*
X27304450Y-37966776D01*
X26185000Y-37966776D01*
X26185000Y-32035750D01*
X28023820Y-32035750D01*
X28023820Y-32529090D01*
X28120493Y-32762479D01*
X28299122Y-32941107D01*
X28532511Y-33037780D01*
X29025850Y-33037780D01*
X29184600Y-32879030D01*
X29184600Y-31877000D01*
X29438600Y-31877000D01*
X29438600Y-32879030D01*
X29597350Y-33037780D01*
X30090689Y-33037780D01*
X30324078Y-32941107D01*
X30502707Y-32762479D01*
X30599380Y-32529090D01*
X30599380Y-32035750D01*
X30568661Y-32005031D01*
X31272257Y-32005031D01*
X31467897Y-32478516D01*
X31829839Y-32841090D01*
X32302981Y-33037556D01*
X32815291Y-33038003D01*
X33288776Y-32842363D01*
X33651350Y-32480421D01*
X33847816Y-32007279D01*
X33847817Y-32005031D01*
X34271997Y-32005031D01*
X34467637Y-32478516D01*
X34829579Y-32841090D01*
X35302721Y-33037556D01*
X35815031Y-33038003D01*
X36288516Y-32842363D01*
X36651090Y-32480421D01*
X36847556Y-32007279D01*
X36848003Y-31494969D01*
X36652363Y-31021484D01*
X36290421Y-30658910D01*
X35817279Y-30462444D01*
X35304969Y-30461997D01*
X34831484Y-30657637D01*
X34468910Y-31019579D01*
X34272444Y-31492721D01*
X34271997Y-32005031D01*
X33847817Y-32005031D01*
X33848263Y-31494969D01*
X33652623Y-31021484D01*
X33290681Y-30658910D01*
X32817539Y-30462444D01*
X32305229Y-30461997D01*
X31831744Y-30657637D01*
X31469170Y-31019579D01*
X31272704Y-31492721D01*
X31272257Y-32005031D01*
X30568661Y-32005031D01*
X30440630Y-31877000D01*
X29438600Y-31877000D01*
X29184600Y-31877000D01*
X28182570Y-31877000D01*
X28023820Y-32035750D01*
X26185000Y-32035750D01*
X26185000Y-30970910D01*
X28023820Y-30970910D01*
X28023820Y-31464250D01*
X28182570Y-31623000D01*
X29184600Y-31623000D01*
X29184600Y-30620970D01*
X29438600Y-30620970D01*
X29438600Y-31623000D01*
X30440630Y-31623000D01*
X30599380Y-31464250D01*
X30599380Y-30970910D01*
X30502707Y-30737521D01*
X30324078Y-30558893D01*
X30090689Y-30462220D01*
X29597350Y-30462220D01*
X29438600Y-30620970D01*
X29184600Y-30620970D01*
X29025850Y-30462220D01*
X28532511Y-30462220D01*
X28299122Y-30558893D01*
X28120493Y-30737521D01*
X28023820Y-30970910D01*
X26185000Y-30970910D01*
X26185000Y-29287314D01*
X26429472Y-28058270D01*
X27081877Y-27081877D01*
X28058268Y-26429472D01*
X29287318Y-26185000D01*
X62610076Y-26185000D01*
X61725421Y-26551436D01*
M02*
